<?xml version="1.0" encoding="UTF-8" standalone="no"?>
<svg
   xmlns:dc="http://purl.org/dc/elements/1.1/"
   xmlns:cc="http://creativecommons.org/ns#"
   xmlns:rdf="http://www.w3.org/1999/02/22-rdf-syntax-ns#"
   xmlns:svg="http://www.w3.org/2000/svg"
   xmlns="http://www.w3.org/2000/svg"
   xmlns:sodipodi="http://sodipodi.sourceforge.net/DTD/sodipodi-0.dtd"
   xmlns:inkscape="http://www.inkscape.org/namespaces/inkscape"
   width="40.639999mm"
   height="128.5mm"
   viewBox="0 0 40.639999 128.5"
   version="1.1"
   id="svg16"
   inkscape:version="1.0.2-2 (e86c870879, 2021-01-15)"
   sodipodi:docname="boringfilter.svg">
  <defs
     id="defs10">
    <rect
       x="3.2072343"
       y="2.9399648"
       width="33.141421"
       height="14.967094"
       id="rect893" />
  </defs>
  <sodipodi:namedview
     id="base"
     pagecolor="#ffffff"
     bordercolor="#666666"
     borderopacity="1.0"
     inkscape:pageopacity="0.0"
     inkscape:pageshadow="2"
     inkscape:zoom="0.98994949"
     inkscape:cx="141.42136"
     inkscape:cy="208.57354"
     inkscape:document-units="mm"
     inkscape:current-layer="layer1"
     inkscape:document-rotation="0"
     showgrid="false"
     inkscape:window-width="1755"
     inkscape:window-height="1012"
     inkscape:window-x="76"
     inkscape:window-y="125"
     inkscape:window-maximized="0" />
  <metadata
     id="metadata13">
    <rdf:RDF>
      <cc:Work
         rdf:about="">
        <dc:format>image/svg+xml</dc:format>
        <dc:type
           rdf:resource="http://purl.org/dc/dcmitype/StillImage" />
        <dc:title></dc:title>
      </cc:Work>
    </rdf:RDF>
  </metadata>
  <g
     inkscape:label="components"
     inkscape:groupmode="layer"
     id="layer1">
    <circle
       id="FILTER_PARAM"
       cx="19.51066"
       cy="45.703072"
       style="fill:#ff0000;fill-opacity:1;stroke-width:0.251611"
       r="13.898" />
    <circle
       id="IN"
       cx="9.3544331"
       cy="98.622452"
       style="fill:#00ff00;fill-opacity:1;stroke-width:0.101611;opacity:0.99800004"
       r="5.6126442" />
    <circle
       id="OUT"
       cx="28.063301"
       cy="98.622452"
       style="fill:#0000ff;fill-opacity:1;stroke-width:0.101611"
       r="5.6126442"
       inkscape:label="OUT" />
    <g
       aria-label="boringfilter"
       id="text891"
       style="font-size:5.64444px;line-height:1.25;font-family:sans-serif;-inkscape-font-specification:'sans-serif, Normal';white-space:pre;shape-inside:url(#rect893)"
       transform="translate(1.3363476,4.2763124)">
      <path
         d="m 5.9548373,6.3928142 q 0,-0.5594831 -0.2315102,-0.8764316 Q 5.4945729,5.196678 5.0921861,5.196678 q -0.4023869,0 -0.6338971,0.3197046 -0.2287542,0.3169485 -0.2287542,0.8764316 0,0.5594831 0.2287542,0.8791877 0.2315102,0.3169486 0.6338971,0.3169486 0.4023868,0 0.631141,-0.3169486 Q 5.9548373,6.9522973 5.9548373,6.3928142 Z M 4.2295348,5.3151892 Q 4.3893871,5.0395817 4.6319217,4.9072902 4.8772123,4.7722425 5.2162094,4.7722425 q 0.5622392,0 0.9122606,0.4464841 0.3527775,0.446484 0.3527775,1.1740876 0,0.7276036 -0.3527775,1.1740877 -0.3500214,0.446484 -0.9122606,0.446484 -0.3389971,0 -0.5842877,-0.1322915 Q 4.3893871,7.7460467 4.2295348,7.4704393 V 7.9334598 H 3.7196611 V 3.6450081 h 0.5098737 z"
         id="path897" />
      <path
         d="m 8.5179865,5.2021901 q -0.4078989,0 -0.6449213,0.3197046 -0.2370224,0.3169486 -0.2370224,0.8709195 0,0.553971 0.2342663,0.8736756 0.2370224,0.3169485 0.6476774,0.3169485 0.405143,0 0.6421654,-0.3197046 0.2370224,-0.3197046 0.2370224,-0.8709195 0,-0.5484588 -0.2370224,-0.8681634 Q 8.9231295,5.2021901 8.5179865,5.2021901 Z m 0,-0.4299476 q 0.6614579,0 1.0390401,0.4299476 0.3775821,0.4299476 0.3775821,1.1906241 0,0.7579205 -0.3775821,1.1906241 -0.3775822,0.4299476 -1.0390401,0.4299476 -0.6642139,0 -1.041796,-0.4299476 -0.3748261,-0.4327036 -0.3748261,-1.1906241 0,-0.7606765 0.3748261,-1.1906241 0.3775821,-0.4299476 1.041796,-0.4299476 z"
         id="path899" />
      <path
         d="m 12.563904,5.3207013 q -0.08544,-0.049609 -0.187413,-0.071658 -0.09922,-0.024805 -0.220486,-0.024805 -0.429948,0 -0.661458,0.2811196 -0.228754,0.2783635 -0.228754,0.8020176 V 7.9334598 H 10.755919 V 4.8466565 h 0.509874 v 0.479557 q 0.159852,-0.2811196 0.416167,-0.4161672 0.256315,-0.1378038 0.622873,-0.1378038 0.05236,0 0.115755,0.00827 0.06339,0.00551 0.140559,0.019292 z"
         id="path901" />
      <path
         d="m 13.095826,4.8466565 h 0.507118 v 3.0868033 h -0.507118 z m 0,-1.2016484 h 0.507118 v 0.6421654 h -0.507118 z"
         id="path903" />
      <path
         d="M 17.229937,6.0703535 V 7.9334598 H 16.722819 V 6.08689 q 0,-0.4382158 -0.170876,-0.6559457 -0.170877,-0.2177299 -0.51263,-0.2177299 -0.410655,0 -0.647677,0.2618271 -0.237023,0.261827 -0.237023,0.7138232 V 7.9334598 H 14.644739 V 4.8466565 h 0.509874 v 0.479557 q 0.181901,-0.2783635 0.427192,-0.4161672 0.248046,-0.1378038 0.570507,-0.1378038 0.531922,0 0.804774,0.330729 0.272851,0.3279728 0.272851,0.967382 z"
         id="path905" />
      <path
         d="m 20.272644,6.3542292 q 0,-0.5512149 -0.228754,-0.854383 -0.225999,-0.3031682 -0.636654,-0.3031682 -0.407899,0 -0.636653,0.3031682 -0.225998,0.3031681 -0.225998,0.854383 0,0.5484588 0.225998,0.8516269 0.228754,0.3031682 0.636653,0.3031682 0.410655,0 0.636654,-0.3031682 0.228754,-0.3031681 0.228754,-0.8516269 z m 0.507117,1.1961362 q 0,0.7882373 -0.350021,1.1713316 -0.350022,0.3858504 -1.072113,0.3858504 -0.267339,0 -0.504362,-0.041341 Q 18.616243,9.0276213 18.393001,8.944939 V 8.4516017 q 0.223242,0.1212673 0.440972,0.1791449 0.21773,0.057878 0.443728,0.057878 0.498849,0 0.746896,-0.261827 0.248047,-0.259071 0.248047,-0.7854812 V 7.3905131 q -0.157097,0.2728514 -0.402387,0.407899 -0.245291,0.1350477 -0.587044,0.1350477 -0.567751,0 -0.915017,-0.4327037 -0.347265,-0.4327037 -0.347265,-1.1465269 0,-0.7165793 0.347265,-1.149283 0.347266,-0.4327037 0.915017,-0.4327037 0.341753,0 0.587044,0.1350477 0.24529,0.1350476 0.402387,0.407899 V 4.8466565 h 0.507117 z"
         id="path907" />
      <path
         d="M 24.31856,4.8466565 V 7.9334598 H 23.808687 V 5.2407752 H 22.416869 V 7.9334598 H 21.906995 V 5.2407752 H 21.421926 V 4.8466565 h 0.485069 V 4.6316827 q 0,-0.5043616 0.237023,-0.74414 0.239778,-0.2425346 0.733116,-0.2425346 h 0.509873 v 0.4216794 h -0.485069 q -0.272851,0 -0.380338,0.110243 -0.104731,0.110243 -0.104731,0.3968747 V 4.8466565 Z M 23.808687,3.6505203 h 0.509873 v 0.6421653 h -0.509873 z"
         id="path909" />
      <path
         d="m 25.379649,3.6450081 h 0.507118 v 4.2884517 h -0.507118 z"
         id="path911" />
      <path
         d="m 27.449461,3.9702249 v 0.8764316 h 1.044553 v 0.3941187 h -1.044553 v 1.6756931 q 0,0.3775822 0.101975,0.4850691 0.104731,0.1074869 0.42168,0.1074869 h 0.520898 v 0.4244355 h -0.520898 q -0.587044,0 -0.810286,-0.2177299 -0.223242,-0.220486 -0.223242,-0.7992616 V 5.2407752 h -0.37207 V 4.8466565 h 0.37207 V 3.9702249 Z"
         id="path913" />
      <path
         d="m 31.801302,6.2632787 v 0.2480467 h -2.331639 q 0.03307,0.5236541 0.314193,0.7992616 0.283876,0.2728513 0.788237,0.2728513 0.292144,0 0.564995,-0.071658 0.275608,-0.071658 0.545703,-0.2149738 v 0.4795569 q -0.272851,0.1157551 -0.559483,0.1763888 -0.286632,0.060634 -0.581532,0.060634 -0.738628,0 -1.171331,-0.4299476 -0.429948,-0.4299476 -0.429948,-1.1630633 0,-0.7579205 0.407899,-1.2016484 0.410655,-0.4464841 1.105186,-0.4464841 0.622873,0 0.983918,0.4023869 0.363802,0.3996308 0.363802,1.088649 z M 31.294185,6.1144507 Q 31.288672,5.6982835 31.059918,5.4502368 30.83392,5.2021901 30.459094,5.2021901 q -0.424435,0 -0.68075,0.2397785 -0.253559,0.2397785 -0.292144,0.6752382 z"
         id="path915" />
      <path
         d="m 34.42233,5.3207013 q -0.08544,-0.049609 -0.187413,-0.071658 -0.09922,-0.024805 -0.220486,-0.024805 -0.429948,0 -0.661458,0.2811196 -0.228754,0.2783635 -0.228754,0.8020176 V 7.9334598 H 32.614345 V 4.8466565 h 0.509874 v 0.479557 q 0.159852,-0.2811196 0.416167,-0.4161672 0.256315,-0.1378038 0.622873,-0.1378038 0.05237,0 0.115755,0.00827 0.06339,0.00551 0.14056,0.019292 z"
         id="path917" />
    </g>
  </g>
</svg>
