<?xml version="1.0" encoding="UTF-8" standalone="no"?>
<!-- Created with Inkscape (http://www.inkscape.org/) -->

<svg
   width="60.959999mm"
   height="128.5mm"
   viewBox="0 0 60.959999 128.5"
   version="1.1"
   id="svg5"
   inkscape:version="1.1.2 (b8e25be833, 2022-02-05)"
   sodipodi:docname="chordscalequantizer.svg"
   xmlns:inkscape="http://www.inkscape.org/namespaces/inkscape"
   xmlns:sodipodi="http://sodipodi.sourceforge.net/DTD/sodipodi-0.dtd"
   xmlns="http://www.w3.org/2000/svg"
   xmlns:svg="http://www.w3.org/2000/svg">
  <sodipodi:namedview
     id="namedview7"
     pagecolor="#ffffff"
     bordercolor="#666666"
     borderopacity="1.0"
     inkscape:pageshadow="2"
     inkscape:pageopacity="0.0"
     inkscape:pagecheckerboard="0"
     inkscape:document-units="mm"
     showgrid="false"
     inkscape:zoom="1.4396184"
     inkscape:cx="-23.270055"
     inkscape:cy="229.57473"
     inkscape:window-width="1482"
     inkscape:window-height="1003"
     inkscape:window-x="0"
     inkscape:window-y="59"
     inkscape:window-maximized="0"
     inkscape:current-layer="layer4" />
  <defs
     id="defs2">
    <rect
       x="19.449598"
       y="363.29074"
       width="76.409137"
       height="45.150832"
       id="rect72831" />
    <rect
       x="-173.65713"
       y="188.24433"
       width="106.97279"
       height="114.61371"
       id="rect70449" />
    <rect
       x="19.449598"
       y="363.29074"
       width="69.462852"
       height="34.036776"
       id="rect66057" />
    <rect
       x="29.869026"
       y="167.40547"
       width="68.420905"
       height="25.353959"
       id="rect30089" />
    <rect
       x="24.311998"
       y="13.89257"
       width="193.10673"
       height="98.63725"
       id="rect10315" />
  </defs>
  <g
     inkscape:label="Layer 1"
     inkscape:groupmode="layer"
     id="layer1">
    <rect
       style="fill:#d3c72c;fill-opacity:1;fill-rule:evenodd;stroke-width:0.264583"
       id="rect31"
       width="60.282177"
       height="127.73205"
       x="0.73514855"
       y="0.91893566"
       ry="5.1460395" />
    <text
       xml:space="preserve"
       transform="scale(0.26458333)"
       id="text66055"
       style="font-size:16px;line-height:1.25;font-family:'Agency FB';-inkscape-font-specification:'Agency FB';white-space:pre;shape-inside:url(#rect66057)"><tspan
         x="19.449219"
         y="378.23828"
         id="tspan439">me</tspan></text>
    <text
       xml:space="preserve"
       transform="scale(0.26458333)"
       id="text70447"
       style="font-size:16px;line-height:1.25;font-family:'Agency FB';-inkscape-font-specification:'Agency FB';white-space:pre;shape-inside:url(#rect70449)" />
    <text
       xml:space="preserve"
       transform="scale(0.26458333)"
       id="text72829"
       style="font-size:16px;line-height:1.25;font-family:'Agency FB';-inkscape-font-specification:'Agency FB';white-space:pre;shape-inside:url(#rect72831)"><tspan
         x="19.449219"
         y="378.23828"
         id="tspan441">me</tspan></text>
  </g>
  <g
     inkscape:groupmode="layer"
     id="layer4"
     inkscape:label="Layer 2">
    <rect
       style="fill:#e8e095;fill-opacity:1;stroke-width:0.183167"
       id="rect23071"
       width="21.135519"
       height="19.113861"
       x="5.1460395"
       y="96.120674"
       ry="2.6424692" />
    <rect
       style="fill:#e8e095;fill-opacity:1;stroke-width:0.239689"
       id="rect23071-4"
       width="23.524752"
       height="29.405939"
       x="4.8703589"
       y="57.98484"
       ry="4.0653372"
       inkscape:transform-center-x="-0.61368918"
       inkscape:transform-center-y="9.1763199" />
    <rect
       style="fill:#36260c;fill-opacity:1;stroke-width:0.213276"
       id="rect23071-4-8"
       width="21.135519"
       height="25.913984"
       x="35.379025"
       y="79.120361"
       ry="3.5825784" />
    <g
       aria-label="quantized 
melody"
       id="text76217-8"
       style="font-size:4.23333px;line-height:1.25;font-family:'Agency FB';-inkscape-font-specification:'Agency FB';stroke-width:0.264583">
      <path
         d="M 40.594481,85.989558 H 40.32163 v -0.762744 h -0.452686 q -0.183968,0 -0.305924,-0.121956 -0.121956,-0.124023 -0.121956,-0.310058 v -1.176155 q 0,-0.177767 0.107487,-0.295589 0.107487,-0.119889 0.283186,-0.119889 0.04754,0 0.489893,0.06821 v -0.05581 h 0.272851 z M 40.32163,84.984969 v -1.519286 q -0.326595,-0.02067 -0.380339,-0.02067 -0.227376,0 -0.227376,0.231511 v 1.076936 q 0,0.23151 0.227376,0.23151 z"
         style="text-align:center;text-anchor:middle;fill:#dddddd"
         id="path296" />
      <path
         d="m 42.198516,85.226814 h -0.270784 v -0.05581 q -0.165365,0.02274 -0.328662,0.04341 -0.198437,0.02481 -0.328662,0.02481 -0.223242,0 -0.223242,-0.223242 v -1.800406 h 0.270784 v 1.765266 l 0.609782,-0.01654 v -1.748729 h 0.270784 z"
         style="text-align:center;text-anchor:middle;fill:#dddddd"
         id="path298" />
      <path
         d="m 43.783947,85.226814 h -0.270784 v -0.05581 q -0.163297,0.02274 -0.326595,0.04341 -0.202571,0.02481 -0.324527,0.02481 -0.225309,0 -0.225309,-0.223242 V 84.28217 q 0,-0.23151 0.233577,-0.23151 h 0.646988 v -0.605648 h -0.591178 v 0.343132 h -0.26665 v -0.338998 q 0,-0.233577 0.23151,-0.233577 h 0.661458 q 0.23151,0 0.23151,0.233577 z m -0.26665,-0.250113 v -0.711068 h -0.613915 v 0.72347 z"
         style="text-align:center;text-anchor:middle;fill:#dddddd"
         id="path300" />
      <path
         d="m 45.39005,85.226814 h -0.274919 v -1.765265 l -0.605647,0.01654 v 1.748729 h -0.274918 v -2.011245 h 0.274918 v 0.05581 q 0.16123,-0.02067 0.324528,-0.04341 0.198437,-0.02481 0.326594,-0.02481 0.229444,0 0.229444,0.225309 z"
         style="text-align:center;text-anchor:middle;fill:#dddddd"
         id="path302" />
      <path
         d="m 46.557936,85.226814 h -0.390673 q -0.231511,0 -0.231511,-0.233577 v -1.535822 h -0.241845 v -0.241846 h 0.241845 v -0.626318 h 0.270785 v 0.626318 h 0.351399 v 0.241846 h -0.351399 v 1.527554 h 0.351399 z"
         style="text-align:center;text-anchor:middle;fill:#dddddd"
         id="path304" />
      <path
         d="m 47.20079,82.775286 h -0.279052 v -0.347265 h 0.279052 z m -0.0041,2.451528 h -0.270784 v -2.011245 h 0.270784 z"
         style="text-align:center;text-anchor:middle;fill:#dddddd"
         id="path306" />
      <path
         d="m 48.627059,85.226814 h -1.058333 v -0.12609 l 0.733805,-1.639175 h -0.657323 v -0.24598 h 0.981851 v 0.128158 l -0.735872,1.637108 h 0.735872 z"
         style="text-align:center;text-anchor:middle;fill:#dddddd"
         id="path308" />
      <path
         d="m 50.14221,84.993237 q 0,0.233577 -0.23151,0.233577 h -0.661458 q -0.23151,0 -0.23151,-0.233577 v -1.544091 q 0,-0.233577 0.23151,-0.233577 H 49.9107 q 0.23151,0 0.23151,0.233577 v 0.72347 l -0.09302,0.09715 h -0.764811 v 0.727603 h 0.591178 v -0.367936 h 0.26665 z M 49.87556,84.05066 v -0.605648 h -0.591178 v 0.605648 z"
         style="text-align:center;text-anchor:middle;fill:#dddddd"
         id="path310" />
      <path
         d="m 51.740044,85.226814 h -0.272851 v -0.05581 q -0.44235,0.06821 -0.489892,0.06821 -0.1757,0 -0.283187,-0.117823 -0.107487,-0.119889 -0.107487,-0.297656 v -1.176154 q 0,-0.186035 0.121956,-0.307991 0.121957,-0.124024 0.305925,-0.124024 h 0.452685 v -1.223697 h 0.272851 z m -0.272851,-0.250113 v -1.519286 h -0.380339 q -0.227376,0 -0.227376,0.233577 v 1.074869 q 0,0.23151 0.227376,0.23151 0.05374,0 0.380339,-0.02067 z"
         style="text-align:center;text-anchor:middle;fill:#dddddd"
         id="path312" />
      <path
         d="m 43.522465,90.518476 h -0.274918 v -1.765265 l -0.599446,0.01654 v 1.748729 h -0.272852 v -1.765265 l -0.599446,0.01654 v 1.748729 h -0.274918 v -2.011245 h 0.274918 v 0.05581 q 0.16123,-0.02067 0.322461,-0.04341 0.19637,-0.02481 0.324528,-0.02481 0.12609,0 0.186035,0.07648 0.173632,-0.02274 0.345198,-0.04754 0.225309,-0.02894 0.341064,-0.02894 0.227376,0 0.227376,0.225309 z"
         style="text-align:center;text-anchor:middle;fill:#dddddd"
         id="path314" />
      <path
         d="m 45.093427,90.284899 q 0,0.233577 -0.23151,0.233577 h -0.661458 q -0.23151,0 -0.23151,-0.233577 v -1.54409 q 0,-0.233578 0.23151,-0.233578 h 0.661458 q 0.23151,0 0.23151,0.233578 v 0.723469 l -0.09302,0.09715 h -0.764811 v 0.727603 h 0.591178 v -0.367936 h 0.26665 z m -0.26665,-0.942577 v -0.605647 h -0.591178 v 0.605647 z"
         style="text-align:center;text-anchor:middle;fill:#dddddd"
         id="path316" />
      <path
         d="M 45.8355,90.518476 H 45.564716 V 87.283535 H 45.8355 Z"
         style="text-align:center;text-anchor:middle;fill:#dddddd"
         id="path318" />
      <path
         d="m 47.458139,90.284899 q 0,0.233577 -0.233577,0.233577 h -0.690397 q -0.23151,0 -0.23151,-0.233577 v -1.54409 q 0,-0.233578 0.23151,-0.233578 h 0.690397 q 0.233577,0 0.233577,0.233578 z m -0.274918,-0.0083 v -1.527554 h -0.605648 v 1.527554 z"
         style="text-align:center;text-anchor:middle;fill:#dddddd"
         id="path320" />
      <path
         d="M 49.049772,90.518476 H 48.77692 v -0.05581 q -0.44235,0.06821 -0.489892,0.06821 -0.1757,0 -0.283187,-0.117822 -0.107486,-0.11989 -0.107486,-0.297656 v -1.176155 q 0,-0.186035 0.121956,-0.307991 0.121956,-0.124024 0.305924,-0.124024 h 0.452685 v -1.223696 h 0.272852 z M 48.77692,90.268363 v -1.519286 h -0.380338 q -0.227376,0 -0.227376,0.233577 v 1.074869 q 0,0.23151 0.227376,0.23151 0.05374,0 0.380338,-0.02067 z"
         style="text-align:center;text-anchor:middle;fill:#dddddd"
         id="path322" />
      <path
         d="m 50.635203,88.507231 -0.483691,1.994709 -0.200505,0.77928 h -0.270784 l 0.202572,-0.77928 -0.496094,-1.994709 h 0.283187 l 0.343131,1.583365 0.347265,-1.583365 z"
         style="text-align:center;text-anchor:middle;fill:#dddddd"
         id="path324" />
    </g>
  </g>
  <g
     inkscape:groupmode="layer"
     id="layer3"
     inkscape:label="text">
    <g
       aria-label="chordscale
quantizer"
       transform="matrix(0.26458333,0,0,0.26458333,-0.73514848,-0.18378713)"
       id="text10313"
       style="font-size:32px;line-height:1.25;white-space:pre;shape-inside:url(#rect10315)">
      <path
         d="m 75.193359,42.021472 q 0,1.765625 -1.75,1.765625 h -4.9375 q -1.75,0 -1.75,-1.765625 V 30.349597 q 0,-1.765625 1.75,-1.765625 h 4.9375 q 1.75,0 1.75,1.765625 v 3.03125 h -2.046875 v -2.96875 h -4.3125 v 11.546875 h 4.3125 v -3.390625 h 2.046875 z"
         style="font-family:'Agency FB';-inkscape-font-specification:'Agency FB';text-align:center;text-anchor:middle"
         id="path122" />
      <path
         d="m 87.302734,43.787097 h -2.078125 v -13.34375 l -4.578125,0.125 v 13.21875 H 78.568359 V 19.333972 h 2.078125 v 9.671875 q 1.234375,-0.15625 2.46875,-0.3125 1.5625,-0.203125 2.453125,-0.203125 1.734375,0 1.734375,1.703125 z"
         style="font-family:'Agency FB';-inkscape-font-specification:'Agency FB';text-align:center;text-anchor:middle"
         id="path124" />
      <path
         d="m 99.396484,42.021472 q 0,1.765625 -1.765625,1.765625 h -5.21875 q -1.75,0 -1.75,-1.765625 V 30.349597 q 0,-1.765625 1.75,-1.765625 h 5.21875 q 1.765625,0 1.765625,1.765625 z m -2.078125,-0.0625 V 30.412097 h -4.578125 v 11.546875 z"
         style="font-family:'Agency FB';-inkscape-font-specification:'Agency FB';text-align:center;text-anchor:middle"
         id="path126" />
      <path
         d="m 110.74023,33.583972 h -2.04687 v -3.140625 l -3.82813,0.125 v 13.21875 h -2.07812 V 28.583972 h 2.07812 v 0.421875 q 1.03125,-0.15625 2.07813,-0.328125 1.25,-0.1875 2.07812,-0.1875 1.71875,0 1.71875,1.703125 z"
         style="font-family:'Agency FB';-inkscape-font-specification:'Agency FB';text-align:center;text-anchor:middle"
         id="path128" />
      <path
         d="m 122.02148,43.787097 h -2.0625 v -0.421875 q -3.34375,0.515625 -3.70312,0.515625 -1.32813,0 -2.14063,-0.890625 -0.8125,-0.90625 -0.8125,-2.25 v -8.890625 q 0,-1.40625 0.92188,-2.328125 0.92187,-0.9375 2.3125,-0.9375 h 3.42187 v -9.25 h 2.0625 z m -2.0625,-1.890625 V 30.412097 h -2.875 q -1.71875,0 -1.71875,1.765625 v 8.125 q 0,1.75 1.71875,1.75 0.40625,0 2.875,-0.15625 z"
         style="font-family:'Agency FB';-inkscape-font-specification:'Agency FB';text-align:center;text-anchor:middle"
         id="path130" />
      <path
         d="m 133.63086,42.021472 q 0,1.765625 -1.76563,1.765625 h -4.76562 q -1.76563,0 -1.76563,-1.765625 v -3.453125 h 2.04688 v 3.421875 h 4.20312 v -3.03125 l -5.4375,-4.453125 q -0.78125,-0.625 -0.78125,-1.625 v -2.53125 q 0,-1.765625 1.76563,-1.765625 h 4.70312 q 1.76563,0 1.76563,1.765625 v 3.03125 h -2.01563 v -3 h -4.20312 v 2.65625 l 5.48437,4.453125 q 0.76563,0.609375 0.76563,1.65625 z"
         style="font-family:'Agency FB';-inkscape-font-specification:'Agency FB';text-align:center;text-anchor:middle"
         id="path132" />
      <path
         d="m 145.36523,42.021472 q 0,1.765625 -1.75,1.765625 h -4.9375 q -1.75,0 -1.75,-1.765625 V 30.349597 q 0,-1.765625 1.75,-1.765625 h 4.9375 q 1.75,0 1.75,1.765625 v 3.03125 h -2.04687 v -2.96875 h -4.3125 v 11.546875 h 4.3125 v -3.390625 h 2.04687 z"
         style="font-family:'Agency FB';-inkscape-font-specification:'Agency FB';text-align:center;text-anchor:middle"
         id="path134" />
      <path
         d="m 157.33398,43.787097 h -2.04687 v -0.421875 q -1.23438,0.171875 -2.46875,0.328125 -1.53125,0.1875 -2.45313,0.1875 -1.70312,0 -1.70312,-1.6875 v -5.546875 q 0,-1.75 1.76562,-1.75 h 4.89063 v -4.578125 h -4.46875 v 2.59375 h -2.01563 v -2.5625 q 0,-1.765625 1.75,-1.765625 h 5 q 1.75,0 1.75,1.765625 z m -2.01562,-1.890625 v -5.375 h -4.64063 v 5.46875 z"
         style="font-family:'Agency FB';-inkscape-font-specification:'Agency FB';text-align:center;text-anchor:middle"
         id="path136" />
      <path
         d="m 162.91211,43.787097 h -2.04688 V 19.333972 h 2.04688 z"
         style="font-family:'Agency FB';-inkscape-font-specification:'Agency FB';text-align:center;text-anchor:middle"
         id="path138" />
      <path
         d="m 174.94336,42.021472 q 0,1.765625 -1.75,1.765625 h -5 q -1.75,0 -1.75,-1.765625 V 30.349597 q 0,-1.765625 1.75,-1.765625 h 5 q 1.75,0 1.75,1.765625 v 5.46875 l -0.70313,0.734375 h -5.78125 v 5.5 h 4.46875 v -2.78125 h 2.01563 z m -2.01563,-7.125 v -4.578125 h -4.46875 v 4.578125 z"
         style="font-family:'Agency FB';-inkscape-font-specification:'Agency FB';text-align:center;text-anchor:middle"
         id="path140" />
      <path
         d="m 83.787109,91.134742 h -2.0625 v -5.765625 h -3.421875 q -1.390625,0 -2.3125,-0.921875 -0.921875,-0.9375 -0.921875,-2.34375 v -8.890625 q 0,-1.34375 0.8125,-2.234375 0.8125,-0.90625 2.140625,-0.90625 0.359375,0 3.703125,0.515625 v -0.421875 h 2.0625 z m -2.0625,-7.59375 V 72.056617 q -2.46875,-0.15625 -2.875,-0.15625 -1.71875,0 -1.71875,1.75 v 8.140625 q 0,1.75 1.71875,1.75 z"
         style="font-family:'Agency FB';-inkscape-font-specification:'Agency FB';text-align:center;text-anchor:middle"
         id="path142" />
      <path
         d="m 95.912109,85.369117 h -2.046875 v -0.421875 q -1.25,0.171875 -2.484375,0.328125 -1.5,0.1875 -2.484375,0.1875 -1.6875,0 -1.6875,-1.6875 V 70.165992 h 2.046875 v 13.34375 l 4.609375,-0.125 v -13.21875 h 2.046875 z"
         style="font-family:'Agency FB';-inkscape-font-specification:'Agency FB';text-align:center;text-anchor:middle"
         id="path144" />
      <path
         d="m 107.89648,85.369117 h -2.04687 v -0.421875 q -1.23438,0.171875 -2.46875,0.328125 -1.53125,0.1875 -2.45313,0.1875 -1.703121,0 -1.703121,-1.6875 v -5.546875 q 0,-1.75 1.765621,-1.75 h 4.89063 v -4.578125 h -4.46875 v 2.59375 h -2.015626 v -2.5625 q 0,-1.765625 1.749996,-1.765625 h 5 q 1.75,0 1.75,1.765625 z m -2.01562,-1.890625 v -5.375 h -4.64063 v 5.46875 z"
         style="font-family:'Agency FB';-inkscape-font-specification:'Agency FB';text-align:center;text-anchor:middle"
         id="path146" />
      <path
         d="m 120.03711,85.369117 h -2.07813 v -13.34375 l -4.57812,0.125 v 13.21875 h -2.07813 V 70.165992 h 2.07813 v 0.421875 q 1.21875,-0.15625 2.45312,-0.328125 1.5,-0.1875 2.46875,-0.1875 1.73438,0 1.73438,1.703125 z"
         style="font-family:'Agency FB';-inkscape-font-specification:'Agency FB';text-align:center;text-anchor:middle"
         id="path148" />
      <path
         d="m 128.86523,85.369117 h -2.95312 q -1.75,0 -1.75,-1.765625 V 71.994117 h -1.82813 v -1.828125 h 1.82813 v -4.734375 h 2.04687 v 4.734375 h 2.65625 v 1.828125 h -2.65625 v 11.546875 h 2.65625 z"
         style="font-family:'Agency FB';-inkscape-font-specification:'Agency FB';text-align:center;text-anchor:middle"
         id="path150" />
      <path
         d="m 133.72461,66.837867 h -2.10938 v -2.625 h 2.10938 z m -0.0312,18.53125 h -2.04688 V 70.165992 h 2.04688 z"
         style="font-family:'Agency FB';-inkscape-font-specification:'Agency FB';text-align:center;text-anchor:middle"
         id="path152" />
      <path
         d="m 144.50586,85.369117 h -8 v -0.953125 l 5.54687,-12.390625 h -4.96875 v -1.859375 h 7.42188 v 0.96875 l -5.5625,12.375 h 5.5625 z"
         style="font-family:'Agency FB';-inkscape-font-specification:'Agency FB';text-align:center;text-anchor:middle"
         id="path154" />
      <path
         d="m 155.95898,83.603492 q 0,1.765625 -1.75,1.765625 h -5 q -1.75,0 -1.75,-1.765625 V 71.931617 q 0,-1.765625 1.75,-1.765625 h 5 q 1.75,0 1.75,1.765625 v 5.46875 l -0.70312,0.734375 h -5.78125 v 5.5 h 4.46875 v -2.78125 h 2.01562 z m -2.01562,-7.125 v -4.578125 h -4.46875 v 4.578125 z"
         style="font-family:'Agency FB';-inkscape-font-specification:'Agency FB';text-align:center;text-anchor:middle"
         id="path156" />
      <path
         d="m 167.34961,75.165992 h -2.04688 v -3.140625 l -3.82812,0.125 v 13.21875 h -2.07813 V 70.165992 h 2.07813 v 0.421875 q 1.03125,-0.15625 2.07812,-0.328125 1.25,-0.1875 2.07813,-0.1875 1.71875,0 1.71875,1.703125 z"
         style="font-family:'Agency FB';-inkscape-font-specification:'Agency FB';text-align:center;text-anchor:middle"
         id="path158" />
    </g>
    <g
       aria-label="chord v/oct"
       transform="matrix(0.26458333,0,0,0.26458333,-1.470297,16.173267)"
       id="text30087"
       style="font-size:16px;line-height:1.25;font-family:'Agency FB';-inkscape-font-specification:'Agency FB';white-space:pre;shape-inside:url(#rect30089)">
      <path
         d="m 38.661133,181.4707 q 0,0.88281 -0.875,0.88281 h -2.46875 q -0.875,0 -0.875,-0.88281 v -5.83594 q 0,-0.88281 0.875,-0.88281 h 2.46875 q 0.875,0 0.875,0.88281 v 1.51562 h -1.023438 v -1.48437 h -2.15625 v 5.77344 h 2.15625 v -1.69532 h 1.023438 z"
         style="text-align:center;text-anchor:middle"
         id="path179" />
      <path
         d="m 44.71582,182.35351 h -1.039062 v -6.67188 l -2.289063,0.0625 v 6.60938 h -1.039062 v -12.22656 h 1.039062 v 4.83593 q 0.617188,-0.0781 1.234375,-0.15625 0.78125,-0.10156 1.226563,-0.10156 0.867187,0 0.867187,0.85156 z"
         style="text-align:center;text-anchor:middle"
         id="path181" />
      <path
         d="m 50.762695,181.4707 q 0,0.88281 -0.882812,0.88281 h -2.609375 q -0.875,0 -0.875,-0.88281 v -5.83594 q 0,-0.88281 0.875,-0.88281 h 2.609375 q 0.882812,0 0.882812,0.88281 z m -1.039062,-0.0312 v -5.77344 H 47.43457 v 5.77344 z"
         style="text-align:center;text-anchor:middle"
         id="path183" />
      <path
         d="m 56.43457,177.25195 h -1.023437 v -1.57032 l -1.914063,0.0625 v 6.60938 h -1.039062 v -7.60156 h 1.039062 v 0.21093 q 0.515625,-0.0781 1.039063,-0.16406 0.625,-0.0937 1.039062,-0.0937 0.859375,0 0.859375,0.85156 z"
         style="text-align:center;text-anchor:middle"
         id="path185" />
      <path
         d="m 62.075195,182.35351 h -1.03125 v -0.21094 q -1.671875,0.25781 -1.851562,0.25781 -0.664063,0 -1.070313,-0.44531 -0.40625,-0.45312 -0.40625,-1.125 v -4.44531 q 0,-0.70313 0.460938,-1.16406 0.460937,-0.46875 1.15625,-0.46875 h 1.710937 v -4.625 h 1.03125 z m -1.03125,-0.94531 v -5.74219 h -1.4375 q -0.859375,0 -0.859375,0.88281 v 4.0625 q 0,0.875 0.859375,0.875 0.203125,0 1.4375,-0.0781 z"
         style="text-align:center;text-anchor:middle"
         id="path187" />
      <path
         d="m 71.200195,174.75195 -1.882812,7.61718 H 68.37207 l -1.890625,-7.61718 h 1.070313 l 1.296875,5.98437 1.3125,-5.98437 z"
         style="text-align:center;text-anchor:middle"
         id="path189" />
      <path
         d="m 78.18457,170.19726 -5.171875,12.15625 h -1.039062 v -0.0625 l 5.171875,-12.16406 h 1.039062 z"
         style="text-align:center;text-anchor:middle"
         id="path191" />
      <path
         d="m 83.754883,181.4707 q 0,0.88281 -0.882813,0.88281 h -2.609375 q -0.875,0 -0.875,-0.88281 v -5.83594 q 0,-0.88281 0.875,-0.88281 h 2.609375 q 0.882813,0 0.882813,0.88281 z m -1.039063,-0.0312 v -5.77344 h -2.289062 v 5.77344 z"
         style="text-align:center;text-anchor:middle"
         id="path193" />
      <path
         d="m 89.668945,181.4707 q 0,0.88281 -0.875,0.88281 h -2.46875 q -0.875,0 -0.875,-0.88281 v -5.83594 q 0,-0.88281 0.875,-0.88281 h 2.46875 q 0.875,0 0.875,0.88281 v 1.51562 h -1.023437 v -1.48437 h -2.15625 v 5.77344 h 2.15625 v -1.69532 h 1.023437 z"
         style="text-align:center;text-anchor:middle"
         id="path195" />
      <path
         d="m 94.09082,182.35351 h -1.476562 q -0.875,0 -0.875,-0.88281 v -5.80469 h -0.914063 v -0.91406 h 0.914063 v -2.36719 h 1.023437 v 2.36719 h 1.328125 v 0.91406 h -1.328125 v 5.77344 h 1.328125 z"
         style="text-align:center;text-anchor:middle"
         id="path197" />
    </g>
    <g
       aria-label="chord gate"
       id="text61463"
       style="font-size:4.23333px;line-height:1.25;font-family:'Agency FB';-inkscape-font-specification:'Agency FB';stroke-width:0.264583">
      <path
         d="m 9.7957265,76.405659 q 0,0.233577 -0.2315102,0.233577 H 8.9110267 q -0.2315102,0 -0.2315102,-0.233577 v -1.54409 q 0,-0.233578 0.2315102,-0.233578 h 0.6531896 q 0.2315102,0 0.2315102,0.233578 v 0.401008 H 9.5249422 v -0.39274 H 8.9544349 v 1.527554 H 9.5249422 V 75.94884 h 0.2707843 z"
         id="path218" />
      <path
         d="m 11.397694,76.639236 h -0.274918 v -1.765265 l -0.605647,0.01654 v 1.748729 H 10.24221 v -3.234941 h 0.274919 v 1.279507 q 0.163297,-0.02067 0.326595,-0.04134 0.206705,-0.02687 0.324527,-0.02687 0.229443,0 0.229443,0.225309 z"
         id="path220" />
      <path
         d="m 12.997595,76.405659 q 0,0.233577 -0.233577,0.233577 h -0.690397 q -0.23151,0 -0.23151,-0.233577 v -1.54409 q 0,-0.233578 0.23151,-0.233578 h 0.690397 q 0.233577,0 0.233577,0.233578 z m -0.274918,-0.0083 V 74.869837 H 12.11703 v 1.527554 z"
         id="path222" />
      <path
         d="m 14.498278,75.289449 h -0.270784 v -0.415478 l -0.506429,0.01654 v 1.748729 h -0.274918 v -2.011245 h 0.274918 v 0.05581 q 0.136426,-0.02067 0.274918,-0.04341 0.165365,-0.02481 0.274919,-0.02481 0.227376,0 0.227376,0.225309 z"
         id="path224" />
      <path
         d="m 15.990692,76.639236 h -0.272851 v -0.05581 q -0.44235,0.06821 -0.489893,0.06821 -0.175699,0 -0.283186,-0.117822 -0.107487,-0.11989 -0.107487,-0.297656 v -1.176155 q 0,-0.186035 0.121956,-0.307991 0.121956,-0.124024 0.305924,-0.124024 h 0.452686 v -1.223696 h 0.272851 z m -0.272851,-0.250113 v -1.519286 h -0.380339 q -0.227376,0 -0.227376,0.233577 v 1.074869 q 0,0.23151 0.227376,0.23151 0.05374,0 0.380339,-0.02067 z"
         id="path226" />
      <path
         d="m 18.415348,77.168403 q 0,0.233577 -0.233577,0.233577 h -0.65319 q -0.237711,0 -0.237711,-0.295589 0,-0.03514 0.0021,-0.10542 0.0041,-0.06821 0.0041,-0.09922 h 0.270784 v 0.26665 h 0.574641 v -0.529167 h -0.452685 q -0.183968,0 -0.305924,-0.121956 -0.121956,-0.124023 -0.121956,-0.310058 v -1.176155 q 0,-0.177767 0.107487,-0.295589 0.107487,-0.119889 0.283186,-0.119889 0.04754,0 0.489892,0.06821 v -0.05581 h 0.272852 z m -0.272852,-0.771012 v -1.519286 q -0.326594,-0.02067 -0.380338,-0.02067 -0.227376,0 -0.227376,0.23151 v 1.076936 q 0,0.23151 0.227376,0.23151 z"
         id="path228" />
      <path
         d="m 20.004914,76.639236 h -0.270785 v -0.05581 q -0.163297,0.02274 -0.326594,0.04341 -0.202572,0.02481 -0.324528,0.02481 -0.225309,0 -0.225309,-0.223242 v -0.733805 q 0,-0.23151 0.233577,-0.23151 h 0.646988 v -0.605647 h -0.591177 v 0.343131 h -0.266651 v -0.338997 q 0,-0.233578 0.231511,-0.233578 h 0.661457 q 0.231511,0 0.231511,0.233578 z m -0.266651,-0.250113 v -0.711067 h -0.613915 v 0.723469 z"
         id="path230" />
      <path
         d="m 21.179001,76.639236 h -0.390673 q -0.231511,0 -0.231511,-0.233577 v -1.535822 h -0.241845 v -0.241846 h 0.241845 v -0.626317 h 0.270785 v 0.626317 h 0.351399 v 0.241846 h -0.351399 v 1.527554 h 0.351399 z"
         id="path232" />
      <path
         d="m 22.654879,76.405659 q 0,0.233577 -0.23151,0.233577 h -0.661458 q -0.23151,0 -0.23151,-0.233577 v -1.54409 q 0,-0.233578 0.23151,-0.233578 h 0.661458 q 0.23151,0 0.23151,0.233578 v 0.723469 l -0.09302,0.09715 h -0.764811 v 0.727603 h 0.591178 v -0.367936 h 0.26665 z m -0.26665,-0.942577 v -0.605647 h -0.591178 v 0.605647 z"
         id="path234" />
    </g>
    <g
       aria-label="melody v/oct"
       id="text76217"
       style="font-size:4.23333px;line-height:1.25;font-family:'Agency FB';-inkscape-font-specification:'Agency FB';stroke-width:0.264583">
      <path
         d="M 9.0470126,101.4505 H 8.7720942 v -1.765265 l -0.5994461,0.01654 V 101.4505 H 7.8997968 v -1.765265 l -0.5994461,0.01654 V 101.4505 H 7.0254323 v -2.011245 h 0.2749184 v 0.05581 q 0.1612303,-0.02067 0.3224606,-0.04341 0.1963703,-0.02481 0.3245277,-0.02481 0.1260904,0 0.186035,0.07648 0.1736327,-0.02274 0.3451983,-0.04754 0.2253091,-0.02894 0.3410642,-0.02894 0.2273761,0 0.2273761,0.225309 z"
         id="path255" />
      <path
         d="m 10.617975,101.21692 q 0,0.23358 -0.23151,0.23358 H 9.7250068 q -0.2315102,0 -0.2315102,-0.23358 v -1.544087 q 0,-0.233578 0.2315102,-0.233578 h 0.6614582 q 0.23151,0 0.23151,0.233578 v 0.723467 l -0.09302,0.0971 H 9.7601467 v 0.72761 h 0.5911783 v -0.36794 h 0.26665 z m -0.26665,-0.94257 V 99.668699 H 9.7601467 v 0.605651 z"
         id="path257" />
      <path
         d="m 11.360048,101.4505 h -0.270785 v -3.234941 h 0.270785 z"
         id="path259" />
      <path
         d="m 12.982687,101.21692 q 0,0.23358 -0.233578,0.23358 h -0.690396 q -0.231511,0 -0.231511,-0.23358 v -1.544087 q 0,-0.233578 0.231511,-0.233578 h 0.690396 q 0.233578,0 0.233578,0.233578 z m -0.274919,-0.008 v -1.527549 h -0.605647 v 1.527549 z"
         id="path261" />
      <path
         d="m 14.574319,101.4505 h -0.272851 v -0.0558 q -0.44235,0.0682 -0.489892,0.0682 -0.1757,0 -0.283187,-0.11782 -0.107487,-0.11989 -0.107487,-0.29766 v -1.17615 q 0,-0.186035 0.121956,-0.307991 0.121957,-0.124024 0.305925,-0.124024 h 0.452685 v -1.223696 h 0.272851 z m -0.272851,-0.25011 V 99.681101 H 13.92113 q -0.227377,0 -0.227377,0.233577 v 1.074872 q 0,0.23151 0.227377,0.23151 0.05374,0 0.380338,-0.0207 z"
         id="path263" />
      <path
         d="m 16.15975,99.439255 -0.483691,1.994705 -0.200504,0.77928 h -0.270784 l 0.202571,-0.77928 -0.496093,-1.994705 h 0.283186 l 0.343132,1.583365 0.347265,-1.583365 z"
         id="path265" />
      <path
         d="m 18.458316,99.439255 -0.49816,2.015375 h -0.250114 l -0.500227,-2.015375 h 0.283186 l 0.343132,1.583365 0.347265,-1.583365 z"
         id="path267" />
      <path
         d="m 20.306264,98.234162 -1.36839,3.216338 h -0.274919 v -0.0165 l 1.368391,-3.218401 h 0.274918 z"
         id="path269" />
      <path
         d="m 21.780075,101.21692 q 0,0.23358 -0.233578,0.23358 h -0.690396 q -0.23151,0 -0.23151,-0.23358 v -1.544087 q 0,-0.233578 0.23151,-0.233578 h 0.690396 q 0.233578,0 0.233578,0.233578 z m -0.274919,-0.008 v -1.527549 h -0.605647 v 1.527549 z"
         id="path271" />
      <path
         d="m 23.344836,101.21692 q 0,0.23358 -0.23151,0.23358 h -0.65319 q -0.23151,0 -0.23151,-0.23358 v -1.544087 q 0,-0.233578 0.23151,-0.233578 h 0.65319 q 0.23151,0 0.23151,0.233578 v 0.401007 h -0.270784 v -0.392739 h -0.570508 v 1.527549 h 0.570508 v -0.44855 h 0.270784 z"
         id="path273" />
      <path
         d="m 24.51479,101.4505 h -0.390674 q -0.23151,0 -0.23151,-0.23358 v -1.535819 h -0.241845 v -0.241846 h 0.241845 v -0.626317 h 0.270784 v 0.626317 h 0.3514 v 0.241846 h -0.3514 v 1.527549 h 0.3514 z"
         id="path275" />
    </g>
  </g>
  <g
     inkscape:groupmode="layer"
     id="layer2"
     inkscape:label="components"
     style="display:none">
    <circle
       style="fill:#00ff00;fill-opacity:1;stroke-width:0.239312"
       id="CHORD_CV_IN"
       cx="15.070375"
       cy="69.103996"
       r="3.3080001"
       inkscape:label="CHORD_CV_IN" />
    <circle
       style="fill:#00ff00;fill-opacity:1;stroke-width:0.239312"
       id="CHORD_GATE_IN"
       cx="15.070544"
       cy="81.785278"
       r="3.3080001"
       inkscape:label="CHORD_GATE_IN" />
    <circle
       style="fill:#00ff00;fill-opacity:1;stroke-width:0.239312"
       id="MELODY_CV_IN"
       cx="15.438119"
       cy="108.06683"
       r="3.3080001"
       inkscape:label="MELODY_CV_IN" />
    <circle
       style="fill:#0000ff;fill-opacity:1;stroke-width:0.239312"
       id="QUANTIZED_CV_OUT"
       cx="45.579205"
       cy="96.304459"
       r="3.3080001"
       inkscape:label="QUANTIZED_CV_OUT" />
  </g>
</svg>
