<?xml version="1.0" encoding="UTF-8" standalone="no"?>
<svg
   xmlns:dc="http://purl.org/dc/elements/1.1/"
   xmlns:cc="http://creativecommons.org/ns#"
   xmlns:rdf="http://www.w3.org/1999/02/22-rdf-syntax-ns#"
   xmlns:svg="http://www.w3.org/2000/svg"
   xmlns="http://www.w3.org/2000/svg"
   xmlns:sodipodi="http://sodipodi.sourceforge.net/DTD/sodipodi-0.dtd"
   xmlns:inkscape="http://www.inkscape.org/namespaces/inkscape"
   width="76.199997mm"
   height="128.5mm"
   viewBox="0 0 76.199997 128.5"
   version="1.1"
   id="svg8"
   inkscape:version="1.0.2-2 (e86c870879, 2021-01-15)"
   sodipodi:docname="randomchordexpndr.svg">
  <defs
     id="defs2">
    <rect
       x="10.583333"
       y="30.049107"
       width="37.986607"
       height="7.1815476"
       id="rect2027" />
    <rect
       x="9.4494048"
       y="7.3705357"
       width="59.151644"
       height="18.330215"
       id="rect1955" />
    <filter
       inkscape:collect="always"
       style="color-interpolation-filters:sRGB"
       id="filter2061"
       x="-9.719999e-05"
       width="1.0001944"
       y="-9.719999e-05"
       height="1.0001944">
      <feGaussianBlur
         inkscape:collect="always"
         stdDeviation="0.00029087098"
         id="feGaussianBlur2063" />
    </filter>
  </defs>
  <sodipodi:namedview
     id="base"
     pagecolor="#ffffff"
     bordercolor="#666666"
     borderopacity="1.0"
     inkscape:pageopacity="0.0"
     inkscape:pageshadow="2"
     inkscape:zoom="0.98994949"
     inkscape:cx="17.114226"
     inkscape:cy="173.55717"
     inkscape:document-units="mm"
     inkscape:current-layer="layer5"
     inkscape:document-rotation="0"
     showgrid="false"
     inkscape:window-width="1755"
     inkscape:window-height="1020"
     inkscape:window-x="98"
     inkscape:window-y="77"
     inkscape:window-maximized="0" />
  <metadata
     id="metadata5">
    <rdf:RDF>
      <cc:Work
         rdf:about="">
        <dc:format>image/svg+xml</dc:format>
        <dc:type
           rdf:resource="http://purl.org/dc/dcmitype/StillImage" />
        <dc:title></dc:title>
      </cc:Work>
    </rdf:RDF>
  </metadata>
  <g
     inkscape:label="Layer 1"
     inkscape:groupmode="layer"
     id="layer1">
    <rect
       id="rect1387"
       width="76.823662"
       height="129.55135"
       x="-0.37797621"
       y="-0.75595242"
       style="fill:#269950;fill-opacity:0.654902;stroke-width:0.261833" />
  </g>
  <g
     inkscape:groupmode="layer"
     id="layer2"
     inkscape:label="Layer 2">
    <rect
       style="fill:#156532;fill-opacity:1;stroke-width:0.229404"
       id="rect1951"
       width="58.665661"
       height="14.801466"
       x="7.7508163"
       y="4.4419384"
       ry="4.2289906" />
    <rect
       style="fill:#156532;fill-opacity:1;stroke-width:0.264583"
       id="rect1999"
       width="67.090775"
       height="102.24255"
       x="3.96875"
       y="22.111607"
       ry="5.6696429" />
  </g>
  <g
     inkscape:groupmode="layer"
     id="layer5"
     inkscape:label="Layer 3">
    <rect
       style="fill:#113011;fill-opacity:1;stroke-width:0.206289"
       id="rect2023"
       width="45.357143"
       height="11.069198"
       x="14.741071"
       y="25.594494"
       ry="4.0497122" />
    <g
       aria-label="seq# out"
       transform="translate(9.638393,-2.078869)"
       id="text2025"
       style="font-size:4.93889px;line-height:1.25;font-family:sans-serif;-inkscape-font-specification:'sans-serif, Normal';white-space:pre;shape-inside:url(#rect2027);fill:#fff3e8;fill-opacity:1">
      <path
         d="m 12.771276,31.797214 v 0.419613 q -0.188102,-0.09646 -0.390674,-0.144694 -0.202572,-0.04823 -0.419613,-0.04823 -0.330384,0 -0.496783,0.101286 -0.163986,0.101285 -0.163986,0.303857 0,0.15434 0.118167,0.243568 0.118166,0.08682 0.475078,0.166399 l 0.151929,0.03376 q 0.472667,0.101285 0.670416,0.286976 0.20016,0.183279 0.20016,0.513664 0,0.376204 -0.299034,0.595657 -0.296623,0.219453 -0.817522,0.219453 -0.217041,0 -0.453374,-0.04341 -0.233922,-0.041 -0.494372,-0.125401 v -0.458198 q 0.24598,0.127813 0.484725,0.192926 0.238746,0.0627 0.472668,0.0627 0.313503,0 0.482313,-0.106109 0.16881,-0.10852 0.16881,-0.303857 0,-0.180868 -0.12299,-0.27733 -0.120579,-0.09646 -0.532957,-0.185691 l -0.15434,-0.03617 q -0.412378,-0.08682 -0.595657,-0.265272 -0.183279,-0.180868 -0.183279,-0.494371 0,-0.381028 0.270095,-0.588423 0.270096,-0.207395 0.766879,-0.207395 0.24598,0 0.463021,0.03617 0.217041,0.03617 0.40032,0.10852 z"
         style="font-size:4.93889px;line-height:1.25;font-family:sans-serif;-inkscape-font-specification:'sans-serif, Normal';white-space:pre;shape-inside:url(#rect2027);fill:#fff3e8;fill-opacity:1"
         id="path2065" />
      <path
         d="m 15.932841,32.957178 v 0.217041 h -2.040186 q 0.02894,0.458198 0.274918,0.699355 0.248392,0.238745 0.689709,0.238745 0.255626,0 0.494371,-0.0627 0.241157,-0.0627 0.47749,-0.188102 v 0.419613 q -0.238745,0.101286 -0.489548,0.15434 -0.250803,0.05306 -0.508841,0.05306 -0.6463,0 -1.024916,-0.376205 -0.376204,-0.376204 -0.376204,-1.017681 0,-0.663181 0.356912,-1.051444 0.359323,-0.390674 0.967038,-0.390674 0.545014,0 0.86093,0.352089 0.318327,0.349678 0.318327,0.952569 z m -0.443729,-0.130224 q -0.0048,-0.364147 -0.204983,-0.581188 -0.197748,-0.217041 -0.525722,-0.217041 -0.371381,0 -0.595657,0.209806 -0.221864,0.209807 -0.255626,0.590834 z"
         style="font-size:4.93889px;line-height:1.25;font-family:sans-serif;-inkscape-font-specification:'sans-serif, Normal';white-space:pre;shape-inside:url(#rect2027);fill:#fff3e8;fill-opacity:1"
         id="path2067" />
      <path
         d="m 16.926407,33.070522 q 0,0.489548 0.20016,0.76929 0.202571,0.27733 0.55466,0.27733 0.352089,0 0.554661,-0.27733 0.202571,-0.279742 0.202571,-0.76929 0,-0.489548 -0.202571,-0.766878 -0.202572,-0.279742 -0.554661,-0.279742 -0.352089,0 -0.55466,0.279742 -0.20016,0.27733 -0.20016,0.766878 z m 1.512052,0.942923 q -0.139871,0.241157 -0.3545,0.359323 -0.212218,0.115756 -0.511252,0.115756 -0.489549,0 -0.798229,-0.390674 -0.306269,-0.390674 -0.306269,-1.027328 0,-0.636654 0.306269,-1.027328 0.30868,-0.390674 0.798229,-0.390674 0.299034,0 0.511252,0.118167 0.214629,0.115755 0.3545,0.356912 v -0.409966 h 0.443729 v 3.728283 h -0.443729 z"
         style="font-size:4.93889px;line-height:1.25;font-family:sans-serif;-inkscape-font-specification:'sans-serif, Normal';white-space:pre;shape-inside:url(#rect2027);fill:#fff3e8;fill-opacity:1"
         id="path2069" />
      <path
         d="m 21.85565,32.245766 h -0.701766 l -0.202572,0.805464 h 0.70659 z m -0.361735,-1.372182 -0.250803,1.000801 h 0.704178 l 0.253214,-1.000801 h 0.385851 l -0.248391,1.000801 h 0.752409 v 0.371381 h -0.846461 l -0.197748,0.805464 h 0.766878 v 0.368969 H 21.952113 L 21.70131,34.418588 H 21.315459 L 21.56385,33.420199 H 20.857261 L 20.60887,34.418588 H 20.220607 L 20.47141,33.420199 H 19.711767 V 33.05123 h 0.848871 l 0.202572,-0.805464 h -0.776525 v -0.371381 h 0.870576 l 0.24598,-1.000801 z"
         style="font-size:4.93889px;line-height:1.25;font-family:sans-serif;-inkscape-font-specification:'sans-serif, Normal';white-space:pre;shape-inside:url(#rect2027);fill:#fff3e8;fill-opacity:1"
         id="path2071" />
      <path
         d="m 26.550972,32.028725 q -0.356912,0 -0.564307,0.279742 -0.207394,0.27733 -0.207394,0.762055 0,0.484725 0.204983,0.764467 0.207395,0.27733 0.566718,0.27733 0.354501,0 0.561895,-0.279742 0.207395,-0.279741 0.207395,-0.762055 0,-0.479902 -0.207395,-0.759644 -0.207394,-0.282153 -0.561895,-0.282153 z m 0,-0.376205 q 0.578776,0 0.909161,0.376205 0.330385,0.376204 0.330385,1.041797 0,0.663181 -0.330385,1.041797 -0.330385,0.376205 -0.909161,0.376205 -0.581188,0 -0.911572,-0.376205 -0.327973,-0.378616 -0.327973,-1.041797 0,-0.665593 0.327973,-1.041797 0.330384,-0.376205 0.911572,-0.376205 z"
         style="font-size:4.93889px;line-height:1.25;font-family:sans-serif;-inkscape-font-specification:'sans-serif, Normal';white-space:pre;shape-inside:url(#rect2027);fill:#fff3e8;fill-opacity:1"
         id="path2073" />
      <path
         d="m 28.480226,33.352675 v -1.635042 h 0.443729 v 1.618161 q 0,0.38344 0.149517,0.576365 0.149517,0.190514 0.448551,0.190514 0.359324,0 0.566719,-0.229099 0.209806,-0.229099 0.209806,-0.624596 v -1.531345 h 0.443729 v 2.700955 h -0.443729 v -0.414789 q -0.161575,0.245979 -0.376204,0.366558 -0.212218,0.118167 -0.494372,0.118167 -0.465432,0 -0.706589,-0.289388 -0.241157,-0.289389 -0.241157,-0.846461 z m 1.116556,-1.700155 z"
         style="font-size:4.93889px;line-height:1.25;font-family:sans-serif;-inkscape-font-specification:'sans-serif, Normal';white-space:pre;shape-inside:url(#rect2027);fill:#fff3e8;fill-opacity:1"
         id="path2075" />
      <path
         d="m 32.095164,30.950754 v 0.766879 h 0.913984 v 0.344854 h -0.913984 v 1.466233 q 0,0.330385 0.08923,0.424436 0.09164,0.09405 0.36897,0.09405 h 0.455786 v 0.371381 h -0.455786 q -0.513664,0 -0.709001,-0.190514 -0.195337,-0.192925 -0.195337,-0.699354 v -1.466233 h -0.325561 v -0.344854 h 0.325561 v -0.766879 z"
         style="font-size:4.93889px;line-height:1.25;font-family:sans-serif;-inkscape-font-specification:'sans-serif, Normal';white-space:pre;shape-inside:url(#rect2027);fill:#fff3e8;fill-opacity:1"
         id="path2077" />
    </g>
  </g>
  <g
     inkscape:groupmode="layer"
     id="layer4"
     inkscape:label="text">
    <g
       aria-label="randomchordexpndr"
       transform="matrix(1.10001,0,0,1.0999218,-6.586521,0.17405407)"
       id="text1953"
       style="font-size:4.58611px;line-height:1.25;font-family:sans-serif;-inkscape-font-specification:'sans-serif, Normal';white-space:pre;shape-inside:url(#rect1955);fill:#dee4f8;fill-opacity:1">
      <path
         d="m 17.507846,9.305859 q -0.06942,-0.040308 -0.152274,-0.058222 -0.08061,-0.020154 -0.179144,-0.020154 -0.349333,0 -0.537435,0.2284098 -0.185863,0.2261705 -0.185863,0.6516402 v 1.321193 H 16.038857 V 8.9206974 H 16.45313 V 9.3103376 Q 16.58301,9.0819278 16.791266,8.9722015 16.999522,8.860236 17.29735,8.860236 q 0.04255,0 0.09405,0.00672 0.05151,0.00448 0.114205,0.015675 z"
         style="text-align:center;text-anchor:middle;fill:#dee4f8;fill-opacity:1"
         id="path1964" />
      <path
         d="m 19.079842,10.167994 q -0.499366,0 -0.691947,0.114205 -0.192581,0.114205 -0.192581,0.38964 0,0.219453 0.143316,0.349333 0.145555,0.12764 0.394119,0.12764 0.342615,0 0.548631,-0.241845 0.208256,-0.244085 0.208256,-0.647161 v -0.09181 z M 19.90167,9.9978062 v 1.4309198 h -0.412034 v -0.380683 q -0.141076,0.22841 -0.351572,0.338136 -0.210495,0.107487 -0.515041,0.107487 -0.385162,0 -0.613572,-0.214974 -0.22617,-0.217213 -0.22617,-0.579981 0,-0.42323 0.282153,-0.638204 0.284393,-0.214974 0.84646,-0.214974 h 0.577742 V 9.805225 q 0,-0.2843925 -0.188102,-0.438905 -0.185863,-0.1567518 -0.523999,-0.1567518 -0.214974,0 -0.418751,0.051504 -0.203777,0.051504 -0.39188,0.1545125 V 9.0349023 q 0.226171,-0.087333 0.438906,-0.1298801 0.212734,-0.044786 0.414272,-0.044786 0.544153,0 0.81287,0.2821532 0.268718,0.2821533 0.268718,0.8554168 z"
         style="text-align:center;text-anchor:middle;fill:#dee4f8;fill-opacity:1"
         id="path1966" />
      <path
         d="M 22.835168,9.9149517 V 11.428726 H 22.423135 V 9.9283876 q 0,-0.3560506 -0.138838,-0.5329562 -0.138837,-0.1769056 -0.416512,-0.1769056 -0.333657,0 -0.526238,0.2127346 -0.192581,0.2127346 -0.192581,0.5799816 v 1.417484 H 20.734694 V 8.9206974 h 0.414272 V 9.3103376 Q 21.296761,9.0841671 21.49606,8.9722015 21.697598,8.860236 21.959597,8.860236 q 0.432187,0 0.653879,0.2687173 0.221692,0.2664781 0.221692,0.7859984 z"
         style="text-align:center;text-anchor:middle;fill:#dee4f8;fill-opacity:1"
         id="path1968" />
      <path
         d="M 25.307368,9.3013803 V 7.9443575 h 0.412033 v 3.4843685 h -0.412033 v -0.376204 q -0.12988,0.223931 -0.329179,0.333657 -0.197059,0.107487 -0.474734,0.107487 -0.45458,0 -0.741212,-0.362768 -0.284393,-0.362769 -0.284393,-0.953947 0,-0.5911781 0.284393,-0.9539466 0.286632,-0.3627684 0.741212,-0.3627684 0.277675,0 0.474734,0.1097262 0.199299,0.107487 0.329179,0.3314181 z m -1.404049,0.8755707 q 0,0.45458 0.185863,0.714341 0.188103,0.25752 0.515042,0.25752 0.326939,0 0.515042,-0.25752 0.188102,-0.259761 0.188102,-0.714341 0,-0.4545801 -0.188102,-0.7121009 -0.188103,-0.2597602 -0.515042,-0.2597602 -0.326939,0 -0.515042,0.2597602 -0.185863,0.2575208 -0.185863,0.7121009 z"
         style="text-align:center;text-anchor:middle;fill:#dee4f8;fill-opacity:1"
         id="path1970" />
      <path
         d="m 27.539962,9.2095686 q -0.331419,0 -0.523999,0.2597601 -0.192581,0.2575208 -0.192581,0.7076223 0,0.450102 0.190341,0.709862 0.192581,0.257521 0.526239,0.257521 0.329178,0 0.521759,-0.25976 0.192581,-0.259761 0.192581,-0.707623 0,-0.4456228 -0.192581,-0.705383 Q 27.86914,9.2095686 27.539962,9.2095686 Z m 0,-0.3493326 q 0.537434,0 0.84422,0.3493326 0.306786,0.3493326 0.306786,0.9673824 0,0.615811 -0.306786,0.967383 -0.306786,0.349332 -0.84422,0.349332 -0.539674,0 -0.84646,-0.349332 -0.304547,-0.351572 -0.304547,-0.967383 0,-0.6180498 0.304547,-0.9673824 0.306786,-0.3493326 0.84646,-0.3493326 z"
         style="text-align:center;text-anchor:middle;fill:#dee4f8;fill-opacity:1"
         id="path1972" />
      <path
         d="M 31.326638,9.4021494 Q 31.48115,9.1244747 31.696124,8.9923553 31.911098,8.860236 32.202209,8.860236 q 0.391879,0 0.604614,0.2754353 0.212734,0.273196 0.212734,0.7792804 V 11.428726 H 32.605285 V 9.9283876 q 0,-0.3605292 -0.127641,-0.5351955 -0.127641,-0.1746663 -0.38964,-0.1746663 -0.320222,0 -0.506085,0.2127346 -0.185863,0.2127346 -0.185863,0.5799816 v 1.417484 H 30.981784 V 9.9283876 q 0,-0.3627685 -0.127641,-0.5351955 -0.127641,-0.1746663 -0.394119,-0.1746663 -0.315743,0 -0.501606,0.2149739 -0.185863,0.2127346 -0.185863,0.5777423 v 1.417484 H 29.358283 V 8.9206974 h 0.414272 v 0.3896402 q 0.141077,-0.2306491 0.338137,-0.3403754 0.197059,-0.1097262 0.468016,-0.1097262 0.273196,0 0.463537,0.1388373 0.192581,0.1388373 0.284393,0.4030761 z"
         style="text-align:center;text-anchor:middle;fill:#dee4f8;fill-opacity:1"
         id="path1974" />
      <path
         d="m 35.646269,9.0169878 v 0.3851616 q -0.174666,-0.09629 -0.351571,-0.143316 -0.174667,-0.049265 -0.353812,-0.049265 -0.400836,0 -0.622528,0.2552815 -0.221692,0.2530422 -0.221692,0.7121011 0,0.459059 0.221692,0.714341 0.221692,0.253042 0.622528,0.253042 0.179145,0 0.353812,-0.04703 0.176905,-0.04927 0.351571,-0.145555 v 0.380683 q -0.172427,0.08061 -0.358289,0.120923 -0.183624,0.04031 -0.39188,0.04031 -0.566546,0 -0.900203,-0.35605 -0.333658,-0.356051 -0.333658,-0.960665 0,-0.6135714 0.335897,-0.9651433 0.338136,-0.3515719 0.924836,-0.3515719 0.190341,0 0.371726,0.040308 0.181384,0.038068 0.351571,0.116445 z"
         style="text-align:center;text-anchor:middle;fill:#dee4f8;fill-opacity:1"
         id="path1976" />
      <path
         d="M 38.447649,9.9149517 V 11.428726 H 38.035615 V 9.9283876 q 0,-0.3560506 -0.138837,-0.5329562 -0.138837,-0.1769056 -0.416512,-0.1769056 -0.333657,0 -0.526238,0.2127346 -0.192581,0.2127346 -0.192581,0.5799816 v 1.417484 H 36.347174 V 7.9443575 h 0.414273 V 9.3103376 Q 36.909242,9.0841671 37.10854,8.9722015 37.310078,8.860236 37.572078,8.860236 q 0.432187,0 0.653879,0.2687173 0.221692,0.2664781 0.221692,0.7859984 z"
         style="text-align:center;text-anchor:middle;fill:#dee4f8;fill-opacity:1"
         id="path1978" />
      <path
         d="m 40.241337,9.2095686 q -0.331419,0 -0.523999,0.2597601 -0.192581,0.2575208 -0.192581,0.7076223 0,0.450102 0.190341,0.709862 0.192581,0.257521 0.526239,0.257521 0.329178,0 0.521759,-0.25976 0.192581,-0.259761 0.192581,-0.707623 0,-0.4456228 -0.192581,-0.705383 -0.192581,-0.2619994 -0.521759,-0.2619994 z m 0,-0.3493326 q 0.537434,0 0.84422,0.3493326 0.306786,0.3493326 0.306786,0.9673824 0,0.615811 -0.306786,0.967383 -0.306786,0.349332 -0.84422,0.349332 -0.539674,0 -0.84646,-0.349332 -0.304547,-0.351572 -0.304547,-0.967383 0,-0.6180498 0.304547,-0.9673824 0.306786,-0.3493326 0.84646,-0.3493326 z"
         style="text-align:center;text-anchor:middle;fill:#dee4f8;fill-opacity:1"
         id="path1980" />
      <path
         d="m 43.528647,9.305859 q -0.06942,-0.040308 -0.152273,-0.058222 -0.08062,-0.020154 -0.179145,-0.020154 -0.349333,0 -0.537435,0.2284098 -0.185863,0.2261705 -0.185863,0.6516402 v 1.321193 H 42.059659 V 8.9206974 h 0.414272 v 0.3896402 q 0.129881,-0.2284098 0.338136,-0.3381361 0.208256,-0.1119655 0.506085,-0.1119655 0.04255,0 0.09405,0.00672 0.0515,0.00448 0.114205,0.015675 z"
         style="text-align:center;text-anchor:middle;fill:#dee4f8;fill-opacity:1"
         id="path1982" />
      <path
         d="M 45.530591,9.3013803 V 7.9443575 h 0.412033 v 3.4843685 h -0.412033 v -0.376204 q -0.12988,0.223931 -0.329179,0.333657 -0.19706,0.107487 -0.474734,0.107487 -0.454581,0 -0.741212,-0.362768 -0.284393,-0.362769 -0.284393,-0.953947 0,-0.5911781 0.284393,-0.9539466 0.286631,-0.3627684 0.741212,-0.3627684 0.277674,0 0.474734,0.1097262 0.199299,0.107487 0.329179,0.3314181 z m -1.404049,0.8755707 q 0,0.45458 0.185863,0.714341 0.188102,0.25752 0.515042,0.25752 0.326939,0 0.515041,-0.25752 0.188103,-0.259761 0.188103,-0.714341 0,-0.4545801 -0.188103,-0.7121009 -0.188102,-0.2597602 -0.515041,-0.2597602 -0.32694,0 -0.515042,0.2597602 -0.185863,0.2575208 -0.185863,0.7121009 z"
         style="text-align:center;text-anchor:middle;fill:#dee4f8;fill-opacity:1"
         id="path1984" />
      <path
         d="m 48.936585,10.071704 v 0.201538 h -1.894458 q 0.02687,0.425469 0.255281,0.6494 0.23065,0.221692 0.640444,0.221692 0.237367,0 0.459058,-0.05822 0.223932,-0.05822 0.443384,-0.174667 v 0.389641 q -0.221692,0.09405 -0.45458,0.143316 -0.232889,0.04926 -0.472495,0.04926 -0.600135,0 -0.951707,-0.349332 -0.349333,-0.349333 -0.349333,-0.94499 0,-0.6158104 0.331418,-0.9763396 0.333658,-0.3627684 0.897964,-0.3627684 0.506085,0 0.799434,0.3269394 0.29559,0.3247002 0.29559,0.8845286 z M 48.524551,9.9507807 q -0.0045,-0.3381361 -0.190341,-0.5396741 -0.183624,-0.201538 -0.48817,-0.201538 -0.344854,0 -0.55311,0.1948201 -0.206017,0.1948201 -0.237367,0.5486313 z"
         style="text-align:center;text-anchor:middle;fill:#dee4f8;fill-opacity:1"
         id="path1986" />
      <path
         d="m 51.617038,8.9206974 -0.906921,1.2204246 0.953947,1.287604 h -0.485931 l -0.730015,-0.985297 -0.730016,0.985297 h -0.48593 l 0.9741,-1.312236 -0.891246,-1.1957926 h 0.485931 l 0.665075,0.8934853 0.665076,-0.8934853 z"
         style="text-align:center;text-anchor:middle;fill:#dee4f8;fill-opacity:1"
         id="path1988" />
      <path
         d="m 52.644883,11.052522 v 1.330151 H 52.230611 V 8.9206974 h 0.414272 v 0.3806829 q 0.12988,-0.2239311 0.32694,-0.3314181 0.199299,-0.1097262 0.474734,-0.1097262 0.456819,0 0.741212,0.3627684 0.286632,0.3627685 0.286632,0.9539466 0,0.591178 -0.286632,0.953947 -0.284393,0.362768 -0.741212,0.362768 -0.275435,0 -0.474734,-0.107487 -0.19706,-0.109726 -0.32694,-0.333657 z m 1.401809,-0.875571 q 0,-0.4545801 -0.188102,-0.7121009 -0.185863,-0.2597602 -0.512802,-0.2597602 -0.32694,0 -0.515042,0.2597602 -0.185863,0.2575208 -0.185863,0.7121009 0,0.45458 0.185863,0.714341 0.188102,0.25752 0.515042,0.25752 0.326939,0 0.512802,-0.25752 0.188102,-0.259761 0.188102,-0.714341 z"
         style="text-align:center;text-anchor:middle;fill:#dee4f8;fill-opacity:1"
         id="path1990" />
      <path
         d="M 57.242191,9.9149517 V 11.428726 H 56.830158 V 9.9283876 q 0,-0.3560506 -0.138838,-0.5329562 -0.138837,-0.1769056 -0.416512,-0.1769056 -0.333657,0 -0.526238,0.2127346 -0.192581,0.2127346 -0.192581,0.5799816 v 1.417484 H 55.141717 V 8.9206974 h 0.414272 V 9.3103376 Q 55.703784,9.0841671 55.903083,8.9722015 56.104621,8.860236 56.36662,8.860236 q 0.432187,0 0.653879,0.2687173 0.221692,0.2664781 0.221692,0.7859984 z"
         style="text-align:center;text-anchor:middle;fill:#dee4f8;fill-opacity:1"
         id="path1992" />
      <path
         d="M 59.714392,9.3013803 V 7.9443575 h 0.412034 v 3.4843685 h -0.412034 v -0.376204 q -0.12988,0.223931 -0.329179,0.333657 -0.197059,0.107487 -0.474734,0.107487 -0.45458,0 -0.741212,-0.362768 -0.284392,-0.362769 -0.284392,-0.953947 0,-0.5911781 0.284392,-0.9539466 0.286632,-0.3627684 0.741212,-0.3627684 0.277675,0 0.474734,0.1097262 0.199299,0.107487 0.329179,0.3314181 z m -1.404048,0.8755707 q 0,0.45458 0.185863,0.714341 0.188102,0.25752 0.515041,0.25752 0.32694,0 0.515042,-0.25752 0.188102,-0.259761 0.188102,-0.714341 0,-0.4545801 -0.188102,-0.7121009 -0.188102,-0.2597602 -0.515042,-0.2597602 -0.326939,0 -0.515041,0.2597602 -0.185863,0.2575208 -0.185863,0.7121009 z"
         style="text-align:center;text-anchor:middle;fill:#dee4f8;fill-opacity:1"
         id="path1994" />
      <path
         d="m 62.428435,9.305859 q -0.06942,-0.040308 -0.152273,-0.058222 -0.08062,-0.020154 -0.179145,-0.020154 -0.349333,0 -0.537435,0.2284098 -0.185863,0.2261705 -0.185863,0.6516402 v 1.321193 H 60.959447 V 8.9206974 h 0.414272 v 0.3896402 q 0.12988,-0.2284098 0.338136,-0.3381361 0.208256,-0.1119655 0.506085,-0.1119655 0.04255,0 0.09405,0.00672 0.0515,0.00448 0.114205,0.015675 z"
         style="text-align:center;text-anchor:middle;fill:#dee4f8;fill-opacity:1"
         id="path1996" />
    </g>
  </g>
  <g
     inkscape:groupmode="layer"
     id="layer3"
     inkscape:label="components">
    <circle
       style="fill:#0000ff;fill-opacity:1;stroke-width:0.264583;filter:url(#filter2061)"
       id="SEQOUT"
       cx="51.593746"
       cy="30.899553"
       r="3.5910001" />
  </g>
</svg>
