<?xml version="1.0" encoding="UTF-8" standalone="no"?>
<!-- Created with Inkscape (http://www.inkscape.org/) -->

<svg
   width="101.6mm"
   height="128.5mm"
   viewBox="0 0 101.6 128.5"
   version="1.1"
   id="svg5"
   inkscape:version="1.1.2 (b8e25be833, 2022-02-05)"
   sodipodi:docname="simplerouter.svg"
   xmlns:inkscape="http://www.inkscape.org/namespaces/inkscape"
   xmlns:sodipodi="http://sodipodi.sourceforge.net/DTD/sodipodi-0.dtd"
   xmlns="http://www.w3.org/2000/svg"
   xmlns:svg="http://www.w3.org/2000/svg">
  <sodipodi:namedview
     id="namedview7"
     pagecolor="#ffffff"
     bordercolor="#666666"
     borderopacity="1.0"
     inkscape:pageshadow="2"
     inkscape:pageopacity="0.0"
     inkscape:pagecheckerboard="0"
     inkscape:document-units="mm"
     showgrid="false"
     inkscape:zoom="1.4396184"
     inkscape:cx="194.8433"
     inkscape:cy="243.11998"
     inkscape:window-width="1482"
     inkscape:window-height="1030"
     inkscape:window-x="191"
     inkscape:window-y="-3"
     inkscape:window-maximized="0"
     inkscape:current-layer="layer2"
     showguides="true"
     inkscape:guide-bbox="true">
    <sodipodi:guide
       position="41.903465,132.54332"
       orientation="0,-1"
       id="guide58593" />
  </sodipodi:namedview>
  <defs
     id="defs2">
    <rect
       x="147.95587"
       y="152.81827"
       width="90.301707"
       height="36.120683"
       id="rect56255" />
    <rect
       x="262.56958"
       y="199.35838"
       width="69.462833"
       height="38.204582"
       id="rect47917" />
    <rect
       x="40.983083"
       y="63.211195"
       width="79.882278"
       height="47.234736"
       id="rect20885" />
    <rect
       x="36.815311"
       y="15.281827"
       width="315.36135"
       height="56.26491"
       id="rect5754" />
    <rect
       x="40.983082"
       y="63.211197"
       width="79.882278"
       height="47.234737"
       id="rect20885-7" />
    <rect
       x="147.95587"
       y="152.81827"
       width="90.301704"
       height="36.120682"
       id="rect56255-9" />
    <rect
       x="262.56958"
       y="199.35838"
       width="69.46283"
       height="38.204582"
       id="rect47917-9" />
    <rect
       x="36.815311"
       y="15.281827"
       width="315.36135"
       height="56.26491"
       id="rect59437" />
    <rect
       x="40.983082"
       y="63.211197"
       width="79.882278"
       height="47.234737"
       id="rect59439" />
    <rect
       x="262.56958"
       y="199.35838"
       width="69.46283"
       height="38.204582"
       id="rect59441" />
    <rect
       x="147.95587"
       y="152.81827"
       width="90.301704"
       height="36.120682"
       id="rect59443" />
  </defs>
  <g
     inkscape:label="Layer 1"
     inkscape:groupmode="layer"
     id="layer1">
    <rect
       style="fill:#7f8fc4;fill-opacity:1;fill-rule:evenodd;stroke-width:0.264583"
       id="rect31"
       width="101.26671"
       height="128.28342"
       x="0.55136138"
       y="0.36757427"
       ry="6.2487626" />
    <rect
       style="fill:#b41a47;fill-opacity:1;stroke-width:0.188903"
       id="rect12828-3"
       width="20.40037"
       height="18.011137"
       x="67.449875"
       y="62.855202"
       ry="3.156595" />
    <rect
       style="fill:#b41a47;fill-opacity:1;stroke-width:0.197412"
       id="rect12828-3-5"
       width="20.216583"
       height="19.849009"
       x="69.655319"
       y="97.590973"
       ry="3.4786966" />
    <rect
       style="fill:#86c47f;fill-opacity:1;stroke-width:0.196496"
       id="rect12828"
       width="20.216583"
       height="19.66522"
       x="13.416459"
       y="62.671406"
       ry="3.4464865" />
    <rect
       style="fill:#86c47f;fill-opacity:1;stroke-width:0.195576"
       id="rect12828-5"
       width="20.216583"
       height="19.481434"
       x="12.497524"
       y="96.488243"
       ry="3.4142764" />
    <rect
       style="fill:#fce7ed;fill-opacity:1;stroke-width:0.264583"
       id="rect13691"
       width="19.113861"
       height="18.746288"
       x="12.865099"
       y="29.222153"
       ry="3.9618442" />
    <rect
       style="fill:#1e040b;fill-opacity:1;stroke-width:0.264583"
       id="rect13715"
       width="20.951733"
       height="18.74629"
       x="67.449883"
       y="29.405943"
       ry="3.9618442" />
    <rect
       style="fill:#492f0e;fill-opacity:1;stroke-width:0.264583"
       id="rect53839"
       width="24.811262"
       height="23.340965"
       x="38.043938"
       y="53.849625"
       ry="1.4702976" />
  </g>
  <g
     inkscape:groupmode="layer"
     id="layer3"
     inkscape:label="textedit"
     style="display:none">
    <text
       xml:space="preserve"
       transform="matrix(0.26458333,0,0,0.26458333,8.0866337,-0.73514852)"
       id="text5752"
       style="font-style:normal;font-weight:normal;font-size:40px;line-height:1.25;font-family:sans-serif;white-space:pre;shape-inside:url(#rect5754);fill:#000000;fill-opacity:1;stroke:none"><tspan
         x="36.814453"
         y="50.671875"
         id="tspan59763">simplerouter</tspan></text>
    <text
       xml:space="preserve"
       transform="matrix(0.26458333,0,0,0.26458333,8.1533885,2.3137124)"
       id="text20883"
       style="font-style:normal;font-weight:normal;font-size:29.3333px;line-height:1.25;font-family:sans-serif;white-space:pre;shape-inside:url(#rect20885-7);fill:#000000;fill-opacity:1;stroke:none"><tspan
         x="40.982422"
         y="89.164033"
         id="tspan59767"><tspan
           style="fill:#492f0e"
           id="tspan59765">in</tspan></tspan></text>
    <text
       xml:space="preserve"
       style="font-style:normal;font-weight:normal;font-size:6.35px;line-height:1.25;font-family:sans-serif;fill:#000000;fill-opacity:1;stroke:none;stroke-width:0.264583"
       x="72.662666"
       y="25.838465"
       id="text27977"><tspan
         sodipodi:role="line"
         id="tspan27975"
         style="font-size:6.35px;stroke-width:0.264583"
         x="72.662666"
         y="25.838465">out</tspan></text>
    <text
       xml:space="preserve"
       style="font-style:normal;font-weight:normal;font-size:7.05556px;line-height:1.25;font-family:sans-serif;fill:#000000;fill-opacity:1;stroke:none;stroke-width:0.264583"
       x="14.585938"
       y="58.001213"
       id="text38025"><tspan
         sodipodi:role="line"
         id="tspan38023"
         style="font-size:7.05556px;stroke-width:0.264583"
         x="14.585938"
         y="58.001213">send1</tspan></text>
    <text
       xml:space="preserve"
       style="font-size:7.05556px;line-height:1.25;font-family:sans-serif;stroke-width:0.264583"
       x="12.931856"
       y="91.818039"
       id="text43669"><tspan
         sodipodi:role="line"
         id="tspan43667"
         style="stroke-width:0.264583"
         x="12.931856"
         y="91.818039">send2</tspan></text>
    <text
       xml:space="preserve"
       transform="matrix(0.26458333,0,0,0.26458333,0.61811651,-0.25930765)"
       id="text47915"
       style="font-size:26.6667px;line-height:1.25;font-family:sans-serif;white-space:pre;shape-inside:url(#rect47917-9)"><tspan
         x="262.57031"
         y="222.9512"
         id="tspan59769">ret1</tspan></text>
    <text
       xml:space="preserve"
       style="font-size:7.05556px;line-height:1.25;font-family:sans-serif;stroke-width:0.264583"
       x="72.662666"
       y="92.001831"
       id="text53301"><tspan
         sodipodi:role="line"
         id="tspan53299"
         style="stroke-width:0.264583"
         x="72.662666"
         y="92.001831">ret2</tspan></text>
    <text
       xml:space="preserve"
       transform="matrix(0.26458333,0,0,0.26458333,0.61811651,-0.25930765)"
       id="text56253"
       style="font-size:26.6667px;line-height:1.25;font-family:sans-serif;white-space:pre;shape-inside:url(#rect56255-9)"><tspan
         x="147.95508"
         y="176.41214"
         id="tspan59771">switch</tspan></text>
  </g>
  <g
     inkscape:groupmode="layer"
     id="g59435"
     inkscape:label="textedit copy"
     style="display:inline">
    <g
       aria-label="simplerouter"
       transform="matrix(0.26458333,0,0,0.26458333,8.0866337,-0.73514852)"
       id="text59403"
       style="font-size:40px;line-height:1.25;white-space:pre;shape-inside:url(#rect59437)">
      <path
         d="m 54.529297,29.441406 v 3.398438 q -1.523438,-0.78125 -3.164063,-1.171875 -1.640625,-0.390625 -3.398437,-0.390625 -2.675781,0 -4.023438,0.820312 -1.328125,0.820313 -1.328125,2.460938 0,1.25 0.957032,1.972656 0.957031,0.703125 3.847656,1.347656 l 1.230469,0.273438 q 3.828125,0.820312 5.429687,2.324218 1.621094,1.484375 1.621094,4.160157 0,3.046875 -2.421875,4.824218 -2.402344,1.777344 -6.621094,1.777344 -1.757812,0 -3.671875,-0.351562 -1.894531,-0.332032 -4.003906,-1.015625 v -3.710938 q 1.992187,1.035156 3.925781,1.5625 1.933594,0.507813 3.828125,0.507813 2.539063,0 3.90625,-0.859375 1.367188,-0.878907 1.367188,-2.460938 0,-1.464844 -0.996094,-2.246094 -0.976563,-0.78125 -4.316406,-1.503906 l -1.25,-0.292969 q -3.339844,-0.703125 -4.824219,-2.148437 -1.484375,-1.464844 -1.484375,-4.003906 0,-3.085938 2.1875,-4.765625 2.1875,-1.679688 6.210937,-1.679688 1.992188,0 3.75,0.292969 1.757813,0.292969 3.242188,0.878906 z"
         id="path59445" />
      <path
         d="m 61.423828,28.796875 h 3.59375 v 21.875 h -3.59375 z m 0,-8.515625 h 3.59375 v 4.550781 h -3.59375 z"
         id="path59447" />
      <path
         d="m 89.568359,32.996094 q 1.347657,-2.421875 3.222657,-3.574219 1.875,-1.152344 4.414062,-1.152344 3.417972,0 5.273442,2.402344 1.85546,2.382812 1.85546,6.796875 V 50.671875 H 100.7207 V 37.585937 q 0,-3.144531 -1.113278,-4.667968 -1.113281,-1.523438 -3.398438,-1.523438 -2.792968,0 -4.414062,1.855469 -1.621094,1.855469 -1.621094,5.058594 V 50.671875 H 86.560547 V 37.585937 q 0,-3.164062 -1.113281,-4.667968 -1.113282,-1.523438 -3.4375,-1.523438 -2.753907,0 -4.375,1.875 -1.621094,1.855469 -1.621094,5.039063 v 12.363281 h -3.613281 v -21.875 h 3.613281 v 3.398437 q 1.230469,-2.011718 2.949219,-2.96875 1.71875,-0.957031 4.082031,-0.957031 2.382812,0 4.042969,1.210938 1.679687,1.210937 2.480468,3.515625 z"
         id="path59449" />
      <path
         d="m 114.97852,47.390625 v 11.601562 h -3.61329 V 28.796875 h 3.61329 v 3.320312 q 1.13281,-1.953125 2.85156,-2.890625 1.73828,-0.957031 4.14062,-0.957031 3.98438,0 6.46485,3.164063 2.5,3.164062 2.5,8.320312 0,5.15625 -2.5,8.320313 -2.48047,3.164062 -6.46485,3.164062 -2.40234,0 -4.14062,-0.9375 -1.71875,-0.957031 -2.85156,-2.910156 z m 12.22656,-7.636719 q 0,-3.964844 -1.64063,-6.210937 -1.62109,-2.265625 -4.47265,-2.265625 -2.85157,0 -4.49219,2.265625 -1.62109,2.246093 -1.62109,6.210937 0,3.964844 1.62109,6.230469 1.64062,2.246094 4.49219,2.246094 2.85156,0 4.47265,-2.246094 1.64063,-2.265625 1.64063,-6.230469 z"
         id="path59451" />
      <path
         d="m 136.89258,20.28125 h 3.59375 v 30.390625 h -3.59375 z"
         id="path59453" />
      <path
         d="m 166.7168,38.835937 v 1.757813 h -16.52344 q 0.23437,3.710937 2.22656,5.664062 2.01172,1.933594 5.58594,1.933594 2.07031,0 4.00391,-0.507812 1.95312,-0.507813 3.86718,-1.523438 v 3.398438 q -1.93359,0.820312 -3.96484,1.25 -2.03125,0.429687 -4.12109,0.429687 -5.23438,0 -8.30079,-3.046875 -3.04687,-3.046875 -3.04687,-8.242187 0,-5.371094 2.89062,-8.515625 2.91016,-3.164063 7.83204,-3.164063 4.41406,0 6.97265,2.851563 2.57813,2.832031 2.57813,7.714843 z m -3.59375,-1.054687 q -0.0391,-2.949219 -1.66016,-4.707031 -1.60156,-1.757813 -4.25781,-1.757813 -3.00781,0 -4.82422,1.699219 -1.79688,1.699219 -2.07031,4.785156 z"
         id="path59455" />
      <path
         d="m 185.29102,32.15625 q -0.60547,-0.351563 -1.32813,-0.507813 -0.70312,-0.175781 -1.5625,-0.175781 -3.04687,0 -4.6875,1.992188 -1.62109,1.972656 -1.62109,5.683593 v 11.523438 h -3.61328 v -21.875 h 3.61328 v 3.398437 q 1.13281,-1.992187 2.94922,-2.949218 1.8164,-0.976563 4.41406,-0.976563 0.37109,0 0.82031,0.05859 0.44922,0.03906 0.99609,0.136719 z"
         id="path59457" />
      <path
         d="m 196.6582,31.316406 q -2.89062,0 -4.57031,2.265625 -1.67969,2.246094 -1.67969,6.171875 0,3.925781 1.66016,6.191406 1.67969,2.246094 4.58984,2.246094 2.8711,0 4.55078,-2.265625 1.67969,-2.265625 1.67969,-6.171875 0,-3.886719 -1.67969,-6.152344 -1.67968,-2.285156 -4.55078,-2.285156 z m 0,-3.046875 q 4.6875,0 7.36328,3.046875 2.67579,3.046875 2.67579,8.4375 0,5.371094 -2.67579,8.4375 -2.67578,3.046875 -7.36328,3.046875 -4.70703,0 -7.38281,-3.046875 -2.65625,-3.066406 -2.65625,-8.4375 0,-5.390625 2.65625,-8.4375 2.67578,-3.046875 7.38281,-3.046875 z"
         id="path59459" />
      <path
         d="M 212.2832,42.039062 V 28.796875 h 3.59375 v 13.105469 q 0,3.105468 1.21094,4.667968 1.21094,1.542969 3.63281,1.542969 2.91016,0 4.58985,-1.855469 1.69922,-1.855468 1.69922,-5.058593 V 28.796875 h 3.59375 v 21.875 h -3.59375 V 47.3125 q -1.3086,1.992187 -3.04688,2.96875 -1.71875,0.957031 -4.00391,0.957031 -3.76953,0 -5.72265,-2.34375 -1.95313,-2.34375 -1.95313,-6.855469 z m 9.04297,-13.769531 z"
         id="path59461" />
      <path
         d="m 241.56055,22.585937 v 6.210938 h 7.40234 v 2.792969 h -7.40234 v 11.875 q 0,2.675781 0.72265,3.4375 0.74219,0.761718 2.98828,0.761718 h 3.69141 v 3.007813 h -3.69141 q -4.16015,0 -5.74218,-1.542969 -1.58203,-1.5625 -1.58203,-5.664062 v -11.875 h -2.63672 v -2.792969 h 2.63672 v -6.210938 z"
         id="path59463" />
      <path
         d="m 272.40039,38.835937 v 1.757813 h -16.52344 q 0.23438,3.710937 2.22657,5.664062 2.01171,1.933594 5.58593,1.933594 2.07032,0 4.00391,-0.507812 1.95312,-0.507813 3.86719,-1.523438 v 3.398438 q -1.9336,0.820312 -3.96485,1.25 -2.03125,0.429687 -4.12109,0.429687 -5.23438,0 -8.30078,-3.046875 -3.04688,-3.046875 -3.04688,-8.242187 0,-5.371094 2.89063,-8.515625 2.91015,-3.164063 7.83203,-3.164063 4.41406,0 6.97266,2.851563 2.57812,2.832031 2.57812,7.714843 z m -3.59375,-1.054687 q -0.0391,-2.949219 -1.66016,-4.707031 -1.60156,-1.757813 -4.25781,-1.757813 -3.00781,0 -4.82422,1.699219 -1.79687,1.699219 -2.07031,4.785156 z"
         id="path59465" />
      <path
         d="m 290.97461,32.15625 q -0.60547,-0.351563 -1.32813,-0.507813 -0.70312,-0.175781 -1.5625,-0.175781 -3.04687,0 -4.6875,1.992188 -1.62109,1.972656 -1.62109,5.683593 v 11.523438 h -3.61328 v -21.875 h 3.61328 v 3.398437 q 1.13281,-1.992187 2.94922,-2.949218 1.81641,-0.976563 4.41406,-0.976563 0.3711,0 0.82031,0.05859 0.44922,0.03906 0.9961,0.136719 z"
         id="path59467" />
    </g>
    <g
       aria-label="in"
       transform="matrix(0.26458333,0,0,0.26458333,8.1533885,2.3137124)"
       id="text59409"
       style="font-size:29.3333px;line-height:1.25;white-space:pre;shape-inside:url(#rect59439)">
      <path
         d="m 43.746742,73.122384 h 2.635413 v 16.041649 h -2.635413 z m 0,-6.244784 h 2.635413 v 3.337236 h -2.635413 z"
         style="fill:#492f0e"
         id="path59470" />
      <path
         d="m 65.231092,79.481752 v 9.682281 H 62.595679 V 79.56769 q 0,-2.277342 -0.88802,-3.408851 -0.88802,-1.131509 -2.664059,-1.131509 -2.134113,0 -3.365882,1.360676 -1.231769,1.360675 -1.231769,3.709631 v 9.066396 H 51.796212 V 73.122384 h 2.649737 v 2.492185 q 0.945311,-1.446613 2.220049,-2.162758 1.289061,-0.716145 2.96484,-0.716145 2.76432,0 4.182287,1.718748 1.417967,1.704425 1.417967,5.027338 z"
         style="fill:#492f0e"
         id="path59472" />
    </g>
    <g
       aria-label="out"
       id="text59413"
       style="font-size:6.35px;line-height:1.25;stroke-width:0.264583">
      <path
         d="m 74.606734,22.765784 q -0.458887,0 -0.725537,0.359668 -0.266651,0.356567 -0.266651,0.979785 0,0.623218 0.26355,0.982886 0.26665,0.356567 0.728638,0.356567 0.455786,0 0.722436,-0.359668 0.266651,-0.359668 0.266651,-0.979785 0,-0.617016 -0.266651,-0.976684 -0.26665,-0.362769 -0.722436,-0.362769 z m 0,-0.483691 q 0.74414,0 1.168921,0.483691 0.42478,0.483692 0.42478,1.339453 0,0.852661 -0.42478,1.339453 -0.424781,0.483692 -1.168921,0.483692 -0.747242,0 -1.172022,-0.483692 -0.421679,-0.486792 -0.421679,-1.339453 0,-0.855761 0.421679,-1.339453 0.42478,-0.483691 1.172022,-0.483691 z"
         id="path59488" />
      <path
         d="m 77.087202,24.468006 v -2.102197 h 0.570508 v 2.080493 q 0,0.492993 0.192236,0.74104 0.192237,0.244946 0.576709,0.244946 0.461988,0 0.728638,-0.294556 0.269751,-0.294555 0.269751,-0.803051 v -1.968872 h 0.570508 v 3.472656 h -0.570508 v -0.533301 q -0.207739,0.31626 -0.483691,0.471289 -0.272852,0.151929 -0.63562,0.151929 -0.598413,0 -0.908472,-0.372071 -0.310059,-0.37207 -0.310059,-1.088305 z m 1.435572,-2.185913 z"
         id="path59490" />
      <path
         d="m 81.734981,21.379822 v 0.985987 h 1.175122 v 0.443383 h -1.175122 v 1.885157 q 0,0.42478 0.114721,0.545703 0.117823,0.120923 0.47439,0.120923 h 0.586011 v 0.47749 h -0.586011 q -0.660425,0 -0.911572,-0.244947 -0.251148,-0.248046 -0.251148,-0.899169 v -1.885157 h -0.418579 v -0.443383 h 0.418579 v -0.985987 z"
         id="path59492" />
    </g>
    <g
       aria-label="send1"
       id="text59417"
       style="font-size:7.05556px;line-height:1.25;stroke-width:0.264583">
      <path
         d="m 17.710642,54.256392 v 0.599447 q -0.268718,-0.137804 -0.558106,-0.206706 -0.289388,-0.0689 -0.599447,-0.0689 -0.471978,0 -0.70969,0.144694 -0.234267,0.144694 -0.234267,0.434082 0,0.220487 0.16881,0.347955 0.16881,0.124024 0.678685,0.237712 l 0.217041,0.04823 q 0.675239,0.144695 0.957737,0.409967 0.285943,0.261827 0.285943,0.733806 0,0.537435 -0.427192,0.850939 -0.423747,0.313504 -1.167888,0.313504 -0.310059,0 -0.647679,-0.06201 -0.334174,-0.05857 -0.706245,-0.179145 v -0.654568 q 0.3514,0.18259 0.692465,0.275607 0.341065,0.08957 0.675239,0.08957 0.447863,0 0.68902,-0.151584 0.241156,-0.15503 0.241156,-0.434083 0,-0.258382 -0.1757,-0.396186 -0.172254,-0.137804 -0.761366,-0.265273 l -0.220486,-0.05168 q -0.589112,-0.124023 -0.850939,-0.378961 -0.261828,-0.258382 -0.261828,-0.706245 0,-0.544325 0.385851,-0.840604 0.385851,-0.296278 1.095541,-0.296278 0.3514,0 0.661459,0.05168 0.310059,0.05168 0.571886,0.15503 z"
         id="path59524" />
      <path
         d="m 22.227165,55.913484 v 0.310059 h -2.914552 q 0.04134,0.654568 0.392741,0.999078 0.354845,0.341065 0.985298,0.341065 0.36518,0 0.706245,-0.08957 0.344509,-0.08957 0.682129,-0.268717 v 0.599447 q -0.341065,0.144694 -0.699355,0.220486 -0.35829,0.07579 -0.726915,0.07579 -0.923287,0 -1.464167,-0.537435 -0.537435,-0.537436 -0.537435,-1.453832 0,-0.947401 0.509874,-1.502062 0.51332,-0.558106 1.381484,-0.558106 0.778593,0 1.2299,0.502984 0.454753,0.499539 0.454753,1.360813 z m -0.633898,-0.186035 q -0.0069,-0.52021 -0.292833,-0.830269 -0.282498,-0.310059 -0.751031,-0.310059 -0.530545,0 -0.85094,0.299724 -0.316948,0.299723 -0.36518,0.844049 z"
         id="path59526" />
      <path
         d="m 26.474971,55.672327 v 2.328886 h -0.633898 v -2.308215 q 0,-0.547771 -0.213596,-0.819934 -0.213596,-0.272162 -0.640788,-0.272162 -0.51332,0 -0.809598,0.327284 -0.296279,0.327284 -0.296279,0.89228 v 2.180747 h -0.637343 v -3.858509 h 0.637343 v 0.599447 q 0.227377,-0.347955 0.533991,-0.52021 0.310058,-0.172255 0.713135,-0.172255 0.664904,0 1.005968,0.413412 0.341065,0.409966 0.341065,1.209229 z"
         id="path59528" />
      <path
         d="m 30.278359,54.72837 v -2.087729 h 0.633898 v 5.360572 h -0.633898 v -0.578776 q -0.199816,0.344509 -0.506429,0.513319 -0.303169,0.165365 -0.730361,0.165365 -0.699355,0 -1.140327,-0.558106 -0.437528,-0.558106 -0.437528,-1.467612 0,-0.909505 0.437528,-1.467611 0.440972,-0.558106 1.140327,-0.558106 0.427192,0 0.730361,0.16881 0.306613,0.165364 0.506429,0.509874 z m -2.160076,1.347033 q 0,0.699355 0.285943,1.098987 0.289388,0.396186 0.792372,0.396186 0.502985,0 0.792373,-0.396186 0.289388,-0.399632 0.289388,-1.098987 0,-0.699354 -0.289388,-1.095541 -0.289388,-0.399631 -0.792373,-0.399631 -0.502984,0 -0.792372,0.399631 -0.285943,0.396187 -0.285943,1.095541 z"
         id="path59530" />
      <path
         d="m 32.428099,57.415546 h 1.136882 V 53.49158 l -1.23679,0.248047 v -0.633898 l 1.2299,-0.248047 h 0.69591 v 4.557864 h 1.136882 v 0.585667 h -2.962784 z"
         id="path59532" />
    </g>
    <g
       aria-label="send2"
       id="text59421"
       style="font-size:7.05556px;line-height:1.25;stroke-width:0.264583">
      <path
         d="m 16.05656,88.073218 v 0.599447 q -0.268718,-0.137804 -0.558106,-0.206706 -0.289388,-0.0689 -0.599447,-0.0689 -0.471978,0 -0.70969,0.144694 -0.234267,0.144694 -0.234267,0.434082 0,0.220487 0.16881,0.347955 0.16881,0.124024 0.678684,0.237712 l 0.217041,0.04823 q 0.67524,0.144694 0.957738,0.409967 0.285943,0.261827 0.285943,0.733806 0,0.537435 -0.427192,0.850939 -0.423747,0.313504 -1.167889,0.313504 -0.310058,0 -0.647678,-0.06201 -0.334174,-0.05857 -0.706245,-0.179145 v -0.654569 q 0.3514,0.182591 0.692465,0.275608 0.341064,0.08957 0.675239,0.08957 0.447862,0 0.689019,-0.151585 0.241157,-0.155029 0.241157,-0.434082 0,-0.258382 -0.1757,-0.396186 -0.172255,-0.137804 -0.761366,-0.265273 L 14.454589,90.0886 q -0.589111,-0.124024 -0.850939,-0.378961 -0.261827,-0.258382 -0.261827,-0.706245 0,-0.544325 0.385851,-0.840604 0.385851,-0.296278 1.095541,-0.296278 0.3514,0 0.661459,0.05168 0.310058,0.05168 0.571886,0.15503 z"
         id="path59513" />
      <path
         d="m 20.573083,89.73031 v 0.310059 H 17.65853 q 0.04134,0.654568 0.392741,0.999078 0.354845,0.341065 0.985298,0.341065 0.365181,0 0.706245,-0.08957 0.34451,-0.08957 0.68213,-0.268718 v 0.599447 q -0.341065,0.144694 -0.699355,0.220487 -0.35829,0.07579 -0.726916,0.07579 -0.923286,0 -1.464166,-0.537435 -0.537436,-0.537436 -0.537436,-1.453832 0,-0.947402 0.509875,-1.502062 0.51332,-0.558106 1.381484,-0.558106 0.778592,0 1.2299,0.502984 0.454753,0.499539 0.454753,1.360813 z m -0.633898,-0.186036 q -0.0069,-0.520209 -0.292833,-0.830268 -0.282498,-0.310059 -0.751032,-0.310059 -0.530545,0 -0.850939,0.299724 -0.316949,0.299723 -0.36518,0.844049 z"
         id="path59515" />
      <path
         d="m 24.820889,89.489153 v 2.328886 h -0.633898 v -2.308216 q 0,-0.54777 -0.213596,-0.819933 -0.213596,-0.272163 -0.640789,-0.272163 -0.513319,0 -0.809597,0.327285 -0.296279,0.327284 -0.296279,0.89228 v 2.180747 H 21.589387 V 87.95953 h 0.637343 v 0.599447 q 0.227377,-0.347955 0.53399,-0.52021 0.310059,-0.172255 0.713135,-0.172255 0.664904,0 1.005969,0.413412 0.341065,0.409966 0.341065,1.209229 z"
         id="path59517" />
      <path
         d="m 28.624277,88.545196 v -2.087729 h 0.633898 v 5.360572 h -0.633898 v -0.578776 q -0.199816,0.344509 -0.50643,0.513319 -0.303168,0.165365 -0.73036,0.165365 -0.699355,0 -1.140328,-0.558106 -0.437527,-0.558106 -0.437527,-1.467612 0,-0.909505 0.437527,-1.467611 0.440973,-0.558106 1.140328,-0.558106 0.427192,0 0.73036,0.16881 0.306614,0.165364 0.50643,0.509874 z M 26.4642,89.892229 q 0,0.699355 0.285943,1.098986 0.289389,0.396187 0.792373,0.396187 0.502984,0 0.792372,-0.396187 0.289389,-0.399631 0.289389,-1.098986 0,-0.699355 -0.289389,-1.095541 -0.289388,-0.399631 -0.792372,-0.399631 -0.502984,0 -0.792373,0.399631 -0.285943,0.396186 -0.285943,1.095541 z"
         id="path59519" />
      <path
         d="m 31.252885,91.232372 h 2.428794 v 0.585667 h -3.265952 v -0.585667 q 0.396186,-0.409966 1.078315,-1.098986 0.685575,-0.692464 0.861275,-0.89228 0.334174,-0.375516 0.465088,-0.633898 0.134359,-0.261828 0.134359,-0.51332 0,-0.409966 -0.289389,-0.668349 -0.285943,-0.258382 -0.747586,-0.258382 -0.327284,0 -0.692464,0.113688 -0.361736,0.113688 -0.775147,0.34451 v -0.7028 q 0.420302,-0.16881 0.785482,-0.254937 0.36518,-0.08613 0.668349,-0.08613 0.799263,0 1.274686,0.399632 0.475424,0.399631 0.475424,1.06798 0,0.316949 -0.120579,0.602892 -0.117133,0.282498 -0.430637,0.668349 -0.08613,0.09991 -0.547771,0.578777 -0.461643,0.475423 -1.302247,1.333252 z"
         id="path59521" />
    </g>
    <g
       aria-label="ret1"
       transform="matrix(0.26458333,0,0,0.26458333,0.61811651,-0.25930765)"
       id="text59425"
       style="font-size:26.6667px;line-height:1.25;white-space:pre;shape-inside:url(#rect59441)">
      <path
         d="m 273.53387,210.60744 q -0.40365,-0.23438 -0.88542,-0.33855 -0.46875,-0.11718 -1.04167,-0.11718 -2.03125,0 -3.125,1.32812 -1.08073,1.31511 -1.08073,3.78907 v 7.6823 h -2.40886 v -14.58335 h 2.40886 v 2.26563 q 0.75521,-1.32813 1.96615,-1.96615 1.21094,-0.65104 2.94271,-0.65104 0.24739,0 0.54687,0.0391 0.29948,0.026 0.66407,0.0911 z"
         id="path59495" />
      <path
         d="m 287.93493,215.06057 v 1.17187 h -11.01564 q 0.15625,2.47396 1.48438,3.77605 1.34114,1.28906 3.72396,1.28906 1.38021,0 2.66927,-0.33854 1.30209,-0.33854 2.57813,-1.01562 v 2.26562 q -1.28906,0.54688 -2.64323,0.83334 -1.35417,0.28646 -2.7474,0.28646 -3.48959,0 -5.53386,-2.03126 -2.03125,-2.03125 -2.03125,-5.49479 0,-3.58074 1.92708,-5.6771 1.94011,-2.10937 5.22136,-2.10937 2.94271,0 4.64845,1.90104 1.71875,1.88802 1.71875,5.14324 z m -2.39584,-0.70313 q -0.026,-1.96615 -1.10677,-3.13802 -1.06771,-1.17188 -2.83855,-1.17188 -2.00521,0 -3.21615,1.13281 -1.19791,1.13282 -1.38021,3.19011 z"
         id="path59497" />
      <path
         d="m 294.23702,204.22722 v 4.14063 h 4.9349 v 1.86198 h -4.9349 v 7.91668 q 0,1.78385 0.48177,2.29167 0.49479,0.50781 1.99219,0.50781 h 2.46094 v 2.00521 h -2.46094 q -2.77344,0 -3.82813,-1.02865 -1.05469,-1.04166 -1.05469,-3.77604 v -7.91668 h -1.75781 v -1.86198 h 1.75781 v -4.14063 z"
         id="path59499" />
      <path
         d="m 303.11724,220.73766 h 4.29688 v -14.83075 l -4.67448,0.9375 v -2.39584 l 4.64844,-0.9375 h 2.63021 v 17.22659 h 4.29688 v 2.21354 h -11.19793 z"
         id="path59501" />
    </g>
    <g
       aria-label="ret2"
       id="text59429"
       style="font-size:7.05556px;line-height:1.25;stroke-width:0.264583">
      <path
         d="m 75.563439,88.735878 q -0.106798,-0.06201 -0.234267,-0.08957 -0.124024,-0.03101 -0.275608,-0.03101 -0.537435,0 -0.826823,0.3514 -0.285943,0.347955 -0.285943,1.002523 v 2.032608 H 73.303454 V 88.14332 h 0.637344 v 0.599447 q 0.199815,-0.3514 0.520209,-0.52021 0.320394,-0.172255 0.778592,-0.172255 0.06546,0 0.144695,0.01033 0.07924,0.0069 0.175699,0.02412 z"
         id="path59504" />
      <path
         d="m 79.373717,89.914102 v 0.310059 h -2.914553 q 0.04134,0.654568 0.392741,0.999078 0.354845,0.341065 0.985298,0.341065 0.36518,0 0.706245,-0.08957 0.34451,-0.08957 0.682129,-0.268718 v 0.599447 q -0.341064,0.144695 -0.699354,0.220487 -0.358291,0.07579 -0.726916,0.07579 -0.923286,0 -1.464167,-0.537435 -0.537435,-0.537436 -0.537435,-1.453832 0,-0.947401 0.509875,-1.502062 0.513319,-0.558106 1.381484,-0.558106 0.778592,0 1.2299,0.502984 0.454753,0.499539 0.454753,1.360813 z m -0.633898,-0.186035 q -0.0069,-0.52021 -0.292834,-0.830269 -0.282498,-0.310059 -0.751031,-0.310059 -0.530545,0 -0.850939,0.299724 -0.316949,0.299723 -0.36518,0.844049 z"
         id="path59506" />
      <path
         d="m 81.041144,87.047781 v 1.095541 h 1.305692 v 0.492649 h -1.305692 v 2.094619 q 0,0.471978 0.127469,0.606337 0.130913,0.134359 0.527099,0.134359 h 0.651124 v 0.530545 h -0.651124 q -0.733805,0 -1.012858,-0.272163 -0.279053,-0.275607 -0.279053,-0.999078 v -2.094619 h -0.465088 v -0.492649 h 0.465088 v -1.095541 z"
         id="path59508" />
      <path
         d="m 83.869569,91.416164 h 2.428794 v 0.585667 h -3.265952 v -0.585667 q 0.396186,-0.409966 1.078315,-1.098986 0.685575,-0.692464 0.861275,-0.89228 0.334174,-0.375516 0.465088,-0.633898 0.134359,-0.261827 0.134359,-0.51332 0,-0.409966 -0.289389,-0.668349 -0.285943,-0.258382 -0.747586,-0.258382 -0.327284,0 -0.692464,0.113688 -0.361736,0.113689 -0.775147,0.34451 v -0.7028 q 0.420302,-0.16881 0.785482,-0.254937 0.36518,-0.08613 0.668349,-0.08613 0.799263,0 1.274686,0.399631 0.475423,0.399631 0.475423,1.06798 0,0.316949 -0.120578,0.602892 -0.117133,0.282498 -0.430637,0.668349 -0.08613,0.09991 -0.547771,0.578777 -0.461643,0.475423 -1.302247,1.333252 z"
         id="path59510" />
    </g>
    <g
       aria-label="switch"
       transform="matrix(0.26458333,0,0,0.26458333,0.61811651,-0.25930765)"
       id="text59433"
       style="font-size:26.6667px;line-height:1.25;white-space:pre;shape-inside:url(#rect59443)">
      <path
         d="m 159.76499,162.25848 v 2.26562 q -1.01563,-0.52083 -2.10938,-0.78125 -1.09375,-0.26041 -2.26563,-0.26041 -1.78385,0 -2.68229,0.54687 -0.88542,0.54688 -0.88542,1.64063 0,0.83333 0.63802,1.3151 0.63802,0.46875 2.56511,0.89844 l 0.82031,0.18229 q 2.55209,0.54688 3.6198,1.54949 1.08073,0.98958 1.08073,2.77344 0,2.03125 -1.61459,3.21615 -1.60156,1.18489 -4.41406,1.18489 -1.17188,0 -2.44792,-0.23437 -1.26303,-0.22136 -2.66928,-0.67709 v -2.47396 q 1.32813,0.69011 2.61719,1.04167 1.28907,0.33854 2.55209,0.33854 1.69271,0 2.60417,-0.57291 0.91146,-0.58594 0.91146,-1.64063 0,-0.97657 -0.66406,-1.4974 -0.65105,-0.52083 -2.87761,-1.0026 l -0.83334,-0.19532 q -2.22656,-0.46875 -3.21615,-1.43229 -0.98958,-0.97656 -0.98958,-2.66928 0,-2.05729 1.45833,-3.17708 1.45834,-1.1198 4.14063,-1.1198 1.32813,0 2.50001,0.19532 1.17187,0.19531 2.16146,0.58594 z"
         id="path59475" />
      <path
         d="m 162.96812,161.82879 h 2.39583 l 2.9948,11.38022 2.98177,-11.38022 h 2.82553 l 2.99479,11.38022 2.98178,-11.38022 h 2.39584 l -3.81511,14.58335 h -2.82553 l -3.13802,-11.95314 -3.15105,11.95314 h -2.82552 z"
         id="path59477" />
      <path
         d="m 186.17127,161.82879 h 2.39584 v 14.58335 h -2.39584 z m 0,-5.67709 h 2.39584 v 3.03385 h -2.39584 z"
         id="path59479" />
      <path
         d="m 195.94993,157.68816 v 4.14063 h 4.9349 v 1.86198 h -4.9349 v 7.91668 q 0,1.78385 0.48177,2.29167 0.49479,0.50781 1.99219,0.50781 h 2.46094 v 2.00521 h -2.46094 q -2.77344,0 -3.82813,-1.02865 -1.05469,-1.04167 -1.05469,-3.77604 v -7.91668 h -1.75781 v -1.86198 h 1.75781 v -4.14063 z"
         id="path59481" />
      <path
         d="m 214.53068,162.38868 v 2.23959 q -1.01562,-0.5599 -2.04427,-0.83333 -1.01563,-0.28646 -2.05729,-0.28646 -2.33074,0 -3.6198,1.48437 -1.28907,1.47136 -1.28907,4.14063 0,2.66928 1.28907,4.15366 1.28906,1.47135 3.6198,1.47135 1.04166,0 2.05729,-0.27344 1.02865,-0.28646 2.04427,-0.84635 v 2.21354 q -1.0026,0.46875 -2.08333,0.70313 -1.06771,0.23437 -2.27865,0.23437 -3.29428,0 -5.23438,-2.07031 -1.94011,-2.07032 -1.94011,-5.58595 0,-3.56771 1.95313,-5.61198 1.96615,-2.04428 5.37761,-2.04428 1.10677,0 2.16146,0.23438 1.05469,0.22135 2.04427,0.67708 z"
         id="path59483" />
      <path
         d="m 230.81977,167.61004 v 8.8021 h -2.39584 v -8.72397 q 0,-2.07032 -0.80729,-3.09896 -0.80729,-1.02865 -2.42188,-1.02865 -1.9401,0 -3.0599,1.23698 -1.11979,1.23698 -1.11979,3.3724 v 8.2422 h -2.40886 V 156.1517 h 2.40886 v 7.94272 q 0.85938,-1.31511 2.01823,-1.96615 1.17188,-0.65105 2.69532,-0.65105 2.51302,0 3.80208,1.56251 1.28907,1.54948 1.28907,4.57031 z"
         id="path59485" />
    </g>
  </g>
  <g
     inkscape:groupmode="layer"
     id="layer2"
     inkscape:label="components"
     style="display:none">
    <ellipse
       style="fill:#00ff00;fill-opacity:1;stroke-width:0.264583"
       id="path58617"
       cx="21.319307"
       cy="38.411507"
       rx="5.881"
       ry="5.8811884"
       inkscape:label="in" />
    <ellipse
       style="fill:#00ff00;fill-opacity:1;stroke-width:0.264583"
       id="path58617-6"
       cx="78.29332"
       cy="38.595299"
       rx="5.881"
       ry="5.8811884"
       inkscape:transform-center-x="48.152228"
       inkscape:transform-center-y="-0.55136139"
       inkscape:label="out" />
    <ellipse
       style="fill:#00ff00;fill-opacity:1;stroke-width:0.264583"
       id="path58617-6-8"
       cx="77.741959"
       cy="71.125618"
       rx="5.881"
       ry="5.8811884"
       inkscape:transform-center-x="48.152228"
       inkscape:transform-center-y="-0.55136139"
       inkscape:label="ret1" />
    <ellipse
       style="fill:#00ff00;fill-opacity:1;stroke-width:0.264583"
       id="path58617-6-6"
       cx="79.947403"
       cy="108.61819"
       rx="5.881"
       ry="5.8811884"
       inkscape:transform-center-x="48.152228"
       inkscape:transform-center-y="-0.55136139"
       inkscape:label="ret2" />
    <ellipse
       style="fill:#0000ff;fill-opacity:1;stroke-width:0.264583"
       id="path58617-6-6-6"
       cx="21.87067"
       cy="71.860771"
       rx="5.881"
       ry="5.8811884"
       inkscape:transform-center-x="48.152228"
       inkscape:transform-center-y="-0.55136139"
       inkscape:label="send1" />
    <ellipse
       style="fill:#0000ff;fill-opacity:1;stroke-width:0.264583"
       id="path58617-6-6-6-8"
       cx="22.054455"
       cy="106.59653"
       rx="5.881"
       ry="5.8811884"
       inkscape:transform-center-x="48.152228"
       inkscape:transform-center-y="-0.55136139"
       inkscape:label="send2" />
    <ellipse
       style="fill:#ff0000;fill-opacity:1;stroke-width:0.264583"
       id="path58617-6-6-6-5"
       cx="51.460396"
       cy="64.693069"
       rx="5.881"
       ry="5.8811884"
       inkscape:transform-center-x="48.152228"
       inkscape:transform-center-y="-0.55136139"
       inkscape:label="switch" />
  </g>
</svg>
