<?xml version="1.0" encoding="UTF-8" standalone="no"?>
<svg
   xmlns:dc="http://purl.org/dc/elements/1.1/"
   xmlns:cc="http://creativecommons.org/ns#"
   xmlns:rdf="http://www.w3.org/1999/02/22-rdf-syntax-ns#"
   xmlns:svg="http://www.w3.org/2000/svg"
   xmlns="http://www.w3.org/2000/svg"
   xmlns:sodipodi="http://sodipodi.sourceforge.net/DTD/sodipodi-0.dtd"
   xmlns:inkscape="http://www.inkscape.org/namespaces/inkscape"
   width="30.48mm"
   height="128.5mm"
   viewBox="0 0 30.48 128.5"
   version="1.1"
   id="svg16"
   inkscape:version="1.0.2-2 (e86c870879, 2021-01-15)"
   sodipodi:docname="Stacktrace.svg">
  <defs
     id="defs10">
    <rect
       x="0.94494048"
       y="1.1339286"
       width="28.159226"
       height="17.197917"
       id="rect136" />
    <rect
       x="0.94494048"
       y="1.889881"
       width="27.970238"
       height="13.040179"
       id="rect130" />
    <filter
       inkscape:collect="always"
       style="color-interpolation-filters:sRGB"
       id="filter2702"
       x="-1.0790195e-05"
       width="1.0000216"
       y="-3.0865156e-06"
       height="1.0000062">
      <feGaussianBlur
         inkscape:collect="always"
         stdDeviation="0.00011614165"
         id="feGaussianBlur2704" />
    </filter>
    <filter
       inkscape:collect="always"
       style="color-interpolation-filters:sRGB"
       id="filter2702-0"
       x="-1.0790195e-05"
       width="1.0000216"
       y="-3.0865156e-06"
       height="1.0000062">
      <feGaussianBlur
         inkscape:collect="always"
         stdDeviation="0.00011614165"
         id="feGaussianBlur2704-1" />
    </filter>
  </defs>
  <sodipodi:namedview
     id="base"
     pagecolor="#ffffff"
     bordercolor="#666666"
     borderopacity="1.0"
     inkscape:pageopacity="0.0"
     inkscape:pageshadow="2"
     inkscape:zoom="1.4"
     inkscape:cx="-368.24435"
     inkscape:cy="231.92615"
     inkscape:document-units="mm"
     inkscape:current-layer="layer6"
     inkscape:document-rotation="0"
     showgrid="false"
     inkscape:window-width="1790"
     inkscape:window-height="1020"
     inkscape:window-x="59"
     inkscape:window-y="0"
     inkscape:window-maximized="0" />
  <metadata
     id="metadata13">
    <rdf:RDF>
      <cc:Work
         rdf:about="">
        <dc:format>image/svg+xml</dc:format>
        <dc:type
           rdf:resource="http://purl.org/dc/dcmitype/StillImage" />
        <dc:title />
      </cc:Work>
    </rdf:RDF>
  </metadata>
  <g
     inkscape:groupmode="layer"
     id="layer5"
     inkscape:label="bg 3"
     style="display:none">
    <rect
       style="opacity:1;fill:#8d8d8d;fill-opacity:0.433333;stroke-width:0.256313"
       id="rect3675"
       width="30.619976"
       height="128.55287"
       x="-0.1188275"
       y="-0.04097686" />
  </g>
  <g
     inkscape:groupmode="layer"
     id="layer6"
     inkscape:label="bg 4">
    <rect
       style="opacity:1;fill:#8d8d8d;fill-opacity:0.916667;stroke-width:0.258736"
       id="rect4244"
       width="16.239122"
       height="76.11541"
       x="7.3724074"
       y="13.956312"
       ry="3.1812031" />
  </g>
  <g
     inkscape:groupmode="layer"
     id="layer4"
     inkscape:label="bg 2">
    <rect
       style="fill:#f9f9f7;fill-opacity:1;stroke:none;stroke-width:0.264583;stroke-opacity:1"
       id="rect3548"
       width="28.731474"
       height="8.5526247"
       x="1.2027128"
       y="3.5866492"
       ry="3.0238094" />
    <rect
       style="fill:#f9f9f7;fill-opacity:1;stroke:none;stroke-width:0.271455;stroke-opacity:1"
       id="rect3550"
       width="12.294398"
       height="16.035999"
       x="1.4699824"
       y="91.53981"
       ry="3.5807889" />
    <rect
       style="fill:#f9f9f7;fill-opacity:1;stroke:none;stroke-width:0.271859;stroke-opacity:1"
       id="rect3552"
       width="11.492591"
       height="16.036169"
       x="17.773424"
       y="91.540001"
       ry="3.2127976" />
  </g>
  <g
     inkscape:groupmode="layer"
     id="layer3"
     inkscape:label="bg">
    <rect
       style="fill:#000013;fill-opacity:1;stroke:none;stroke-width:0.253319;stroke-opacity:1"
       id="rect2809"
       width="10.394345"
       height="16.630953"
       x="1.8898809"
       y="109.99107"
       ry="2.0788691" />
    <rect
       style="fill:#000013;fill-opacity:1;stroke:none;stroke-width:0.253319;stroke-opacity:1"
       id="rect2809-8"
       width="10.394345"
       height="16.630953"
       x="19.182291"
       y="110.18005"
       ry="2.2678571" />
  </g>
  <g
     inkscape:label="Layer 1"
     inkscape:groupmode="layer"
     id="layer1"
     style="display:inline;filter:url(#filter2702)">
    <text
       xml:space="preserve"
       id="text128"
       style="font-style:normal;font-weight:normal;font-size:10.5833px;line-height:1.25;font-family:sans-serif;white-space:pre;shape-inside:url(#rect130);fill:#000000;fill-opacity:1;stroke:none;" />
    <text
       xml:space="preserve"
       id="text134"
       style="font-style:normal;font-weight:normal;font-size:10.5833px;line-height:1.25;font-family:sans-serif;white-space:pre;shape-inside:url(#rect136);fill:#000000;fill-opacity:1;stroke:none;" />
    <g
       aria-label="Stacktrace"
       id="text142"
       style="font-style:normal;font-weight:normal;font-size:10.5833px;line-height:1.25;font-family:sans-serif;fill:#000000;fill-opacity:1;stroke:none;stroke-width:0.264583"
       transform="translate(0,2.1166667)">
      <path
         d="M 5.0621257,3.6992444 V 4.1743231 Q 4.7847954,4.0416869 4.5388156,3.9765746 4.2928357,3.9114623 4.0637368,3.9114623 q -0.3979086,0 -0.6149497,0.1543403 -0.2146295,0.1543403 -0.2146295,0.4389053 0,0.2387451 0.1422825,0.3617351 0.144694,0.1205783 0.5450142,0.1953369 l 0.2942112,0.060289 q 0.5450143,0.1036974 0.803052,0.3665582 0.2604492,0.2604493 0.2604492,0.6993546 0,0.5233101 -0.3520888,0.7934056 -0.3496773,0.2700956 -1.0273277,0.2700956 -0.2556261,0 -0.5450142,-0.057878 Q 3.0677595,7.1357279 2.7590788,7.0223842 v -0.501606 q 0.2966228,0.1663981 0.5811878,0.250803 0.2845649,0.084405 0.5594836,0.084405 0.4172012,0 0.6438885,-0.1639865 Q 4.770326,6.5280129 4.770326,6.2241554 4.770326,5.958883 4.6063394,5.8093658 4.4447644,5.6598486 4.0733831,5.58509 L 3.7767603,5.5272124 Q 3.231746,5.4186919 2.9881777,5.1871814 2.7446094,4.955671 2.7446094,4.5432929 q 0,-0.4774903 0.3352079,-0.752409 0.3376194,-0.2749187 0.9284534,-0.2749187 0.2532146,0 0.5160754,0.04582 0.2628609,0.04582 0.5377796,0.1374592 z"
         style="font-style:normal;font-variant:normal;font-weight:normal;font-stretch:normal;font-size:4.93889px;font-family:sans-serif;-inkscape-font-specification:'sans-serif, Normal';font-variant-ligatures:normal;font-variant-caps:normal;font-variant-numeric:normal;font-variant-east-asian:normal;stroke-width:0.264583"
         id="path2833" />
      <path
         d="m 6.4584233,3.7137138 v 0.7668784 h 0.913984 v 0.3448541 h -0.913984 v 1.466233 q 0,0.3303847 0.089228,0.4244358 0.09164,0.094051 0.3689698,0.094051 H 7.3724073 V 7.1815476 H 6.9166211 q -0.5136639,0 -0.7090008,-0.1905138 Q 6.0122833,6.7981084 6.0122833,6.2916793 V 4.8254463 H 5.6867217 V 4.4805922 H 6.0122833 V 3.7137138 Z"
         style="font-style:normal;font-variant:normal;font-weight:normal;font-stretch:normal;font-size:4.93889px;font-family:sans-serif;-inkscape-font-specification:'sans-serif, Normal';font-variant-ligatures:normal;font-variant-caps:normal;font-variant-numeric:normal;font-variant-east-asian:normal;stroke-width:0.264583"
         id="path2835" />
      <path
         d="m 9.1834947,5.8238352 q -0.5377796,0 -0.7451744,0.1229899 -0.2073948,0.12299 -0.2073948,0.4196128 0,0.2363336 0.1543404,0.3762045 0.1567518,0.1374593 0.4244358,0.1374593 0.3689698,0 0.590834,-0.2604493 Q 9.6248115,6.3567916 9.6248115,5.9227095 V 5.8238352 Z M 10.06854,5.6405561 V 7.1815476 H 9.6248115 V 6.7715812 Q 9.4728827,7.0175611 9.2461954,7.1357279 9.0195081,7.2514831 8.6915349,7.2514831 q -0.4147896,0 -0.6607694,-0.2315105 -0.2435684,-0.233922 -0.2435684,-0.6245959 0,-0.4557863 0.3038575,-0.6872967 0.3062691,-0.2315105 0.9115725,-0.2315105 h 0.6221844 v -0.043408 q 0,-0.3062691 -0.2025717,-0.4726672 -0.2001601,-0.1688097 -0.5643067,-0.1688097 -0.2315105,0 -0.4509631,0.055466 -0.2194527,0.055466 -0.4220243,0.1663982 V 4.6035821 Q 8.228514,4.509531 8.4576129,4.4637112 q 0.2290989,-0.048231 0.4461399,-0.048231 0.5860109,0 0.875399,0.3038575 0.2893882,0.3038574 0.2893882,0.9212184 z"
         style="font-style:normal;font-variant:normal;font-weight:normal;font-stretch:normal;font-size:4.93889px;font-family:sans-serif;-inkscape-font-specification:'sans-serif, Normal';font-variant-ligatures:normal;font-variant-caps:normal;font-variant-numeric:normal;font-variant-east-asian:normal;stroke-width:0.264583"
         id="path2837" />
      <path
         d="m 12.926247,4.5842896 v 0.4147896 q -0.188102,-0.1036974 -0.378616,-0.1543403 -0.188102,-0.053055 -0.381028,-0.053055 -0.43167,0 -0.670415,0.2749187 -0.238746,0.2725071 -0.238746,0.7668784 0,0.4943713 0.238746,0.76929 0.238745,0.2725071 0.670415,0.2725071 0.192926,0 0.381028,-0.050643 0.190514,-0.053055 0.378616,-0.1567519 v 0.4099664 q -0.185691,0.086816 -0.385851,0.1302247 -0.197748,0.043408 -0.422024,0.043408 -0.610127,0 -0.96945,-0.3834392 -0.359324,-0.3834392 -0.359324,-1.0345624 0,-0.6607695 0.361735,-1.0393856 0.364147,-0.378616 0.995978,-0.378616 0.204983,0 0.40032,0.043408 0.195337,0.040997 0.378616,0.1254025 z"
         style="font-style:normal;font-variant:normal;font-weight:normal;font-stretch:normal;font-size:4.93889px;font-family:sans-serif;-inkscape-font-specification:'sans-serif, Normal';font-variant-ligatures:normal;font-variant-caps:normal;font-variant-numeric:normal;font-variant-east-asian:normal;stroke-width:0.264583"
         id="path2839" />
      <path
         d="m 13.681067,3.4291488 h 0.44614 v 2.2162304 l 1.323951,-1.164787 h 0.566718 l -1.432471,1.2636613 1.49276,1.4372941 H 15.499389 L 14.127207,5.8624203 v 1.3191273 h -0.44614 z"
         style="font-style:normal;font-variant:normal;font-weight:normal;font-stretch:normal;font-size:4.93889px;font-family:sans-serif;-inkscape-font-specification:'sans-serif, Normal';font-variant-ligatures:normal;font-variant-caps:normal;font-variant-numeric:normal;font-variant-east-asian:normal;stroke-width:0.264583"
         id="path2841" />
      <path
         d="m 16.996972,3.7137138 v 0.7668784 h 0.913984 v 0.3448541 h -0.913984 v 1.466233 q 0,0.3303847 0.08923,0.4244358 0.09164,0.094051 0.36897,0.094051 h 0.455786 V 7.1815476 H 17.45517 q -0.513664,0 -0.709001,-0.1905138 Q 16.550832,6.7981084 16.550832,6.2916793 V 4.8254463 H 16.225271 V 4.4805922 h 0.325561 V 3.7137138 Z"
         style="font-style:normal;font-variant:normal;font-weight:normal;font-stretch:normal;font-size:4.93889px;font-family:sans-serif;-inkscape-font-specification:'sans-serif, Normal';font-variant-ligatures:normal;font-variant-caps:normal;font-variant-numeric:normal;font-variant-east-asian:normal;stroke-width:0.264583"
         id="path2843" />
      <path
         d="m 20.059664,4.8953818 q -0.07476,-0.043408 -0.163987,-0.062701 -0.08682,-0.021704 -0.192925,-0.021704 -0.376205,0 -0.578777,0.2459799 -0.20016,0.2435683 -0.20016,0.7017661 v 1.4228247 h -0.44614 V 4.4805922 h 0.44614 v 0.4196127 q 0.139871,-0.2459799 0.364147,-0.3641467 0.224276,-0.1205783 0.545014,-0.1205783 0.04582,0 0.101286,0.00723 0.05547,0.00482 0.12299,0.016881 z"
         style="font-style:normal;font-variant:normal;font-weight:normal;font-stretch:normal;font-size:4.93889px;font-family:sans-serif;-inkscape-font-specification:'sans-serif, Normal';font-variant-ligatures:normal;font-variant-caps:normal;font-variant-numeric:normal;font-variant-east-asian:normal;stroke-width:0.264583"
         id="path2845" />
      <path
         d="m 21.752584,5.8238352 q -0.53778,0 -0.745175,0.1229899 -0.207395,0.12299 -0.207395,0.4196128 0,0.2363336 0.154341,0.3762045 0.156752,0.1374593 0.424436,0.1374593 0.368969,0 0.590834,-0.2604493 Q 22.1939,6.3567916 22.1939,5.9227095 V 5.8238352 Z M 22.637629,5.6405561 V 7.1815476 H 22.1939 V 6.7715812 q -0.151928,0.2459799 -0.378616,0.3641467 -0.226687,0.1157552 -0.55466,0.1157552 -0.41479,0 -0.66077,-0.2315105 -0.243568,-0.233922 -0.243568,-0.6245959 0,-0.4557863 0.303858,-0.6872967 0.306269,-0.2315105 0.911572,-0.2315105 H 22.1939 v -0.043408 q 0,-0.3062691 -0.202571,-0.4726672 -0.20016,-0.1688097 -0.564307,-0.1688097 -0.23151,0 -0.450963,0.055466 -0.219453,0.055466 -0.422024,0.1663982 V 4.6035821 q 0.243568,-0.094051 0.472667,-0.1398709 0.229099,-0.048231 0.44614,-0.048231 0.586011,0 0.875399,0.3038575 0.289388,0.3038574 0.289388,0.9212184 z"
         style="font-style:normal;font-variant:normal;font-weight:normal;font-stretch:normal;font-size:4.93889px;font-family:sans-serif;-inkscape-font-specification:'sans-serif, Normal';font-variant-ligatures:normal;font-variant-caps:normal;font-variant-numeric:normal;font-variant-east-asian:normal;stroke-width:0.264583"
         id="path2847" />
      <path
         d="m 25.495337,4.5842896 v 0.4147896 q -0.188102,-0.1036974 -0.378616,-0.1543403 -0.188102,-0.053055 -0.381028,-0.053055 -0.43167,0 -0.670415,0.2749187 -0.238746,0.2725071 -0.238746,0.7668784 0,0.4943713 0.238746,0.76929 0.238745,0.2725071 0.670415,0.2725071 0.192926,0 0.381028,-0.050643 0.190514,-0.053055 0.378616,-0.1567519 v 0.4099664 q -0.185691,0.086816 -0.385851,0.1302247 -0.197748,0.043408 -0.422024,0.043408 -0.610127,0 -0.96945,-0.3834392 -0.359324,-0.3834392 -0.359324,-1.0345624 0,-0.6607695 0.361735,-1.0393856 0.364147,-0.378616 0.995978,-0.378616 0.204983,0 0.40032,0.043408 0.195337,0.040997 0.378616,0.1254025 z"
         style="font-style:normal;font-variant:normal;font-weight:normal;font-stretch:normal;font-size:4.93889px;font-family:sans-serif;-inkscape-font-specification:'sans-serif, Normal';font-variant-ligatures:normal;font-variant-caps:normal;font-variant-numeric:normal;font-variant-east-asian:normal;stroke-width:0.264583"
         id="path2849" />
      <path
         d="m 28.577319,5.7201378 v 0.2170411 h -2.040186 q 0.02894,0.4581978 0.274918,0.6993545 0.248392,0.2387452 0.689709,0.2387452 0.255626,0 0.494371,-0.062701 0.241157,-0.062701 0.47749,-0.1881022 v 0.4196127 q -0.238745,0.1012858 -0.489548,0.1543403 -0.250803,0.053055 -0.50884,0.053055 -0.646301,0 -1.024917,-0.3762045 -0.376204,-0.3762045 -0.376204,-1.0176814 0,-0.6631811 0.356912,-1.0514434 0.359323,-0.3906739 0.967038,-0.3906739 0.545015,0 0.86093,0.3520888 0.318327,0.3496773 0.318327,0.9525688 z M 28.13359,5.5899132 q -0.0048,-0.3641467 -0.204983,-0.5811878 -0.197748,-0.217041 -0.525722,-0.217041 -0.371381,0 -0.595657,0.2098063 -0.221864,0.2098064 -0.255626,0.590834 z"
         style="font-style:normal;font-variant:normal;font-weight:normal;font-stretch:normal;font-size:4.93889px;font-family:sans-serif;-inkscape-font-specification:'sans-serif, Normal';font-variant-ligatures:normal;font-variant-caps:normal;font-variant-numeric:normal;font-variant-east-asian:normal;stroke-width:0.264583"
         id="path2851" />
    </g>
    <g
       aria-label="Push"
       id="text2761"
       style="font-style:normal;font-weight:normal;font-size:10.5833px;line-height:1.25;font-family:sans-serif;fill:#000000;fill-opacity:1;stroke:none;stroke-width:0.264583">
      <path
         d="m 3.5984265,93.94512 v 1.062986 h 0.4812804 q 0.2671675,0 0.4130674,-0.138321 0.1459,-0.138321 0.1459,-0.394119 0,-0.253904 -0.1459,-0.392225 Q 4.3468744,93.94512 4.0797069,93.94512 Z M 3.215676,93.630583 h 0.8640309 q 0.475596,0 0.718131,0.216007 0.2444298,0.214113 0.2444298,0.629076 0,0.418751 -0.2444298,0.632864 -0.242535,0.214113 -0.718131,0.214113 H 3.5984265 v 1.136883 H 3.215676 Z"
         style="font-style:normal;font-variant:normal;font-weight:normal;font-stretch:normal;font-size:3.88056px;font-family:sans-serif;-inkscape-font-specification:'sans-serif, Normal';font-variant-ligatures:normal;font-variant-caps:normal;font-variant-numeric:normal;font-variant-east-asian:normal;stroke-width:0.264583"
         id="path2854" />
      <path
         d="m 5.4363871,95.622022 v -1.284677 h 0.3486441 v 1.271414 q 0,0.301274 0.1174779,0.452858 0.1174779,0.14969 0.3524336,0.14969 0.2823259,0 0.4452791,-0.180007 0.164848,-0.180006 0.164848,-0.490754 v -1.203201 h 0.3486441 v 2.122181 H 6.8650698 V 96.13362 q -0.1269519,0.19327 -0.2955895,0.28801 -0.1667428,0.09285 -0.3884349,0.09285 -0.3656973,0 -0.5551778,-0.227376 -0.1894805,-0.227377 -0.1894805,-0.665077 z m 0.8772946,-1.335837 z"
         style="font-style:normal;font-variant:normal;font-weight:normal;font-stretch:normal;font-size:3.88056px;font-family:sans-serif;-inkscape-font-specification:'sans-serif, Normal';font-variant-ligatures:normal;font-variant-caps:normal;font-variant-numeric:normal;font-variant-east-asian:normal;stroke-width:0.264583"
         id="path2856" />
      <path
         d="m 9.2847351,94.399873 v 0.329696 q -0.1477947,-0.07579 -0.3069583,-0.113688 -0.1591636,-0.0379 -0.329696,-0.0379 -0.2595883,0 -0.3903298,0.07958 -0.1288467,0.07958 -0.1288467,0.238745 0,0.121268 0.092845,0.191375 0.092845,0.06821 0.3732766,0.130742 l 0.1193726,0.02653 q 0.3713818,0.07958 0.5267557,0.225482 0.1572688,0.144005 0.1572688,0.403593 0,0.29559 -0.2349558,0.468017 -0.2330609,0.172427 -0.6423387,0.172427 -0.1705324,0 -0.3562233,-0.03411 -0.1837961,-0.03221 -0.388435,-0.09853 v -0.360013 q 0.1932701,0.100425 0.3808558,0.151585 0.1875856,0.04926 0.3713817,0.04926 0.2463246,0 0.3789609,-0.08337 0.1326363,-0.08527 0.1326363,-0.238745 0,-0.142111 -0.096635,-0.217903 -0.09474,-0.07579 -0.4187518,-0.1459 L 8.403651,95.508334 Q 8.0796394,95.440121 7.9356342,95.299906 7.7916291,95.157795 7.7916291,94.911471 q 0,-0.299379 0.2122181,-0.462333 0.2122181,-0.162953 0.6025479,-0.162953 0.1932701,0 0.3638025,0.02842 0.1705324,0.02842 0.3145375,0.08527 z"
         style="font-style:normal;font-variant:normal;font-weight:normal;font-stretch:normal;font-size:3.88056px;font-family:sans-serif;-inkscape-font-specification:'sans-serif, Normal';font-variant-ligatures:normal;font-variant-caps:normal;font-variant-numeric:normal;font-variant-east-asian:normal;stroke-width:0.264583"
         id="path2858" />
      <path
         d="m 11.717665,95.178638 v 1.280888 h -0.348644 v -1.269519 q 0,-0.301274 -0.117478,-0.450964 -0.117478,-0.149689 -0.352434,-0.149689 -0.282326,0 -0.445279,0.180006 -0.162953,0.180007 -0.162953,0.490755 v 1.199411 H 9.9403381 V 93.51121 h 0.3505389 v 1.155831 q 0.125057,-0.191375 0.293695,-0.286116 0.170532,-0.09474 0.392224,-0.09474 0.365698,0 0.553283,0.227377 0.187586,0.225481 0.187586,0.665076 z"
         style="font-style:normal;font-variant:normal;font-weight:normal;font-stretch:normal;font-size:3.88056px;font-family:sans-serif;-inkscape-font-specification:'sans-serif, Normal';font-variant-ligatures:normal;font-variant-caps:normal;font-variant-numeric:normal;font-variant-east-asian:normal;stroke-width:0.264583"
         id="path2860" />
    </g>
    <g
       aria-label="Pop"
       id="text2773"
       style="font-style:normal;font-weight:normal;font-size:10.5833px;line-height:1.25;font-family:sans-serif;fill:#000000;fill-opacity:1;stroke:none;stroke-width:0.264583"
       inkscape:transform-center-x="-0.3779762"
       inkscape:transform-center-y="-1.5119048"
       transform="translate(0,-0.378669)">
      <path
         d="m 20.985332,94.204207 v 1.062985 h 0.48128 q 0.267168,0 0.413068,-0.13832 0.145899,-0.138321 0.145899,-0.39412 0,-0.253904 -0.145899,-0.392224 -0.1459,-0.138321 -0.413068,-0.138321 z m -0.382751,-0.314538 h 0.864031 q 0.475596,0 0.718131,0.216008 0.24443,0.214113 0.24443,0.629075 0,0.418752 -0.24443,0.632865 -0.242535,0.214113 -0.718131,0.214113 h -0.48128 v 1.136883 h -0.382751 z"
         style="font-style:normal;font-variant:normal;font-weight:normal;font-stretch:normal;font-size:3.88056px;font-family:sans-serif;-inkscape-font-specification:'sans-serif, Normal';font-variant-ligatures:normal;font-variant-caps:normal;font-variant-numeric:normal;font-variant-east-asian:normal;stroke-width:0.264583"
         id="path2863" />
      <path
         d="m 23.611531,94.840861 q -0.280431,0 -0.443384,0.219798 -0.162954,0.217902 -0.162954,0.598758 0,0.380856 0.161059,0.600653 0.162953,0.217902 0.445279,0.217902 0.278536,0 0.441489,-0.219797 0.162954,-0.219797 0.162954,-0.598758 0,-0.377066 -0.162954,-0.596864 -0.162953,-0.221692 -0.441489,-0.221692 z m 0,-0.295589 q 0.454753,0 0.714341,0.295589 0.259588,0.29559 0.259588,0.818556 0,0.521071 -0.259588,0.818555 -0.259588,0.29559 -0.714341,0.29559 -0.456648,0 -0.716236,-0.29559 -0.257694,-0.297484 -0.257694,-0.818555 0,-0.522966 0.257694,-0.818556 0.259588,-0.295589 0.716236,-0.295589 z"
         style="font-style:normal;font-variant:normal;font-weight:normal;font-stretch:normal;font-size:3.88056px;font-family:sans-serif;-inkscape-font-specification:'sans-serif, Normal';font-variant-ligatures:normal;font-variant-caps:normal;font-variant-numeric:normal;font-variant-east-asian:normal;stroke-width:0.264583"
         id="path2865" />
      <path
         d="m 25.500651,96.400285 v 1.125514 h -0.350538 v -2.929368 h 0.350538 v 0.322117 q 0.109899,-0.18948 0.276642,-0.280431 0.168638,-0.09284 0.401699,-0.09284 0.38654,0 0.62718,0.306958 0.242535,0.306958 0.242535,0.807187 0,0.500228 -0.242535,0.807187 -0.24064,0.306958 -0.62718,0.306958 -0.233061,0 -0.401699,-0.09095 -0.166743,-0.09284 -0.276642,-0.282326 z m 1.186148,-0.740868 q 0,-0.384645 -0.159163,-0.602548 -0.157269,-0.219797 -0.433911,-0.219797 -0.276641,0 -0.435805,0.219797 -0.157269,0.217903 -0.157269,0.602548 0,0.384645 0.157269,0.604443 0.159164,0.217902 0.435805,0.217902 0.276642,0 0.433911,-0.217902 0.159163,-0.219798 0.159163,-0.604443 z"
         style="font-style:normal;font-variant:normal;font-weight:normal;font-stretch:normal;font-size:3.88056px;font-family:sans-serif;-inkscape-font-specification:'sans-serif, Normal';font-variant-ligatures:normal;font-variant-caps:normal;font-variant-numeric:normal;font-variant-east-asian:normal;stroke-width:0.264583"
         id="path2867" />
    </g>
    <g
       aria-label="In"
       id="text2785"
       style="font-style:normal;font-weight:normal;font-size:10.5833px;line-height:1.25;font-family:sans-serif;fill:#ffffff;fill-opacity:1;stroke:none;stroke-width:0.264583"
       transform="translate(0.52916667)">
      <path
         d="m 4.7275822,111.88684 h 0.3827505 v 2.82894 H 4.7275822 Z"
         style="font-style:normal;font-variant:normal;font-weight:normal;font-stretch:normal;font-size:3.88056px;font-family:sans-serif;-inkscape-font-specification:'sans-serif, Normal';font-variant-ligatures:normal;font-variant-caps:normal;font-variant-numeric:normal;font-variant-east-asian:normal;fill:#ffffff;fill-opacity:1;stroke-width:0.264583"
         id="path2870" />
      <path
         d="m 7.6209488,113.43489 v 1.28089 h -0.348644 v -1.26952 q 0,-0.30127 -0.1174779,-0.45096 -0.1174779,-0.14969 -0.3524337,-0.14969 -0.2823259,0 -0.4452791,0.18001 -0.1629532,0.18 -0.1629532,0.49075 v 1.19941 H 5.8436221 v -2.12218 h 0.3505388 v 0.3297 q 0.1250571,-0.19138 0.2936948,-0.28612 0.1705324,-0.0947 0.3922245,-0.0947 0.3656973,0 0.553283,0.22738 0.1875856,0.22548 0.1875856,0.66507 z"
         style="font-style:normal;font-variant:normal;font-weight:normal;font-stretch:normal;font-size:3.88056px;font-family:sans-serif;-inkscape-font-specification:'sans-serif, Normal';font-variant-ligatures:normal;font-variant-caps:normal;font-variant-numeric:normal;font-variant-east-asian:normal;fill:#ffffff;fill-opacity:1;stroke-width:0.264583"
         id="path2872" />
    </g>
    <g
       aria-label="Out"
       id="text2793"
       style="font-style:normal;font-weight:normal;font-size:10.5833px;line-height:1.25;font-family:sans-serif;fill:#ffffff;fill-opacity:1;stroke:none;stroke-width:0.264583">
      <path
         d="m 22.279996,112.19776 q -0.416857,0 -0.663181,0.31075 -0.24443,0.31074 -0.24443,0.84697 0,0.53434 0.24443,0.84509 0.246324,0.31074 0.663181,0.31074 0.416857,0 0.659392,-0.31074 0.24443,-0.31075 0.24443,-0.84509 0,-0.53623 -0.24443,-0.84697 -0.242535,-0.31075 -0.659392,-0.31075 z m 0,-0.31075 q 0.594969,0 0.951192,0.3998 0.356223,0.39791 0.356223,1.06867 0,0.66887 -0.356223,1.06867 -0.356223,0.39791 -0.951192,0.39791 -0.596863,0 -0.954981,-0.39791 -0.356224,-0.39791 -0.356224,-1.06867 0,-0.67076 0.356224,-1.06867 0.358118,-0.3998 0.954981,-0.3998 z"
         style="font-style:normal;font-variant:normal;font-weight:normal;font-stretch:normal;font-size:3.88056px;font-family:sans-serif;-inkscape-font-specification:'sans-serif, Normal';font-variant-ligatures:normal;font-variant-caps:normal;font-variant-numeric:normal;font-variant-east-asian:normal;fill:#ffffff;fill-opacity:1;stroke-width:0.264583"
         id="path2875" />
      <path
         d="m 24.13501,113.92961 v -1.28468 h 0.348644 v 1.27142 q 0,0.30127 0.117478,0.45285 0.117478,0.14969 0.352433,0.14969 0.282326,0 0.44528,-0.18 0.164848,-0.18001 0.164848,-0.49076 v -1.2032 h 0.348644 v 2.12218 h -0.348644 v -0.3259 q -0.126952,0.19327 -0.29559,0.28801 -0.166743,0.0928 -0.388435,0.0928 -0.365697,0 -0.555178,-0.22737 -0.18948,-0.22738 -0.18948,-0.66508 z m 0.877294,-1.33584 z"
         style="font-style:normal;font-variant:normal;font-weight:normal;font-stretch:normal;font-size:3.88056px;font-family:sans-serif;-inkscape-font-specification:'sans-serif, Normal';font-variant-ligatures:normal;font-variant-caps:normal;font-variant-numeric:normal;font-variant-east-asian:normal;fill:#ffffff;fill-opacity:1;stroke-width:0.264583"
         id="path2877" />
      <path
         d="m 26.975322,112.04238 v 0.60255 h 0.718131 v 0.27096 h -0.718131 v 1.15204 q 0,0.25959 0.07011,0.33349 0.072,0.0739 0.289905,0.0739 h 0.358118 v 0.2918 h -0.358118 q -0.403593,0 -0.557072,-0.14969 -0.15348,-0.15158 -0.15348,-0.54949 v -1.15204 h -0.255798 v -0.27096 h 0.255798 v -0.60255 z"
         style="font-style:normal;font-variant:normal;font-weight:normal;font-stretch:normal;font-size:3.88056px;font-family:sans-serif;-inkscape-font-specification:'sans-serif, Normal';font-variant-ligatures:normal;font-variant-caps:normal;font-variant-numeric:normal;font-variant-east-asian:normal;fill:#ffffff;fill-opacity:1;stroke-width:0.264583"
         id="path2879" />
    </g>
  </g>
  <g
     inkscape:groupmode="layer"
     id="layer2"
     inkscape:label="components"
     style="display:none">
    <circle
       id="path164-9"
       cx="15.685739"
       cy="24.946426"
       style="fill:#ff00ff;fill-opacity:1;stroke:none;stroke-width:0.264583;stroke-opacity:1;filter:url(#filter2702)"
       r="4.1577382"
       transform="matrix(0.8181913,0,0,0.89400933,2.8519638,-3.5925169)"
       inkscape:label="frame8" />
    <circle
       id="path164-9-3"
       cx="15.685739"
       cy="35.529762"
       r="4.1577382"
       style="fill:#ff00ff;fill-opacity:1;stroke-width:0.264583;filter:url(#filter2702)"
       transform="matrix(0.8181913,0,0,0.89400933,2.8518286,4.8157415)"
       inkscape:label="frame6" />
    <circle
       id="path164-9-3-5"
       cx="15.686012"
       cy="46.302082"
       r="4.1577382"
       style="fill:#ff00ff;fill-opacity:1;stroke-width:0.264583;filter:url(#filter2702)"
       transform="matrix(0.8181913,0,0,0.89400933,2.8518286,4.8157415)"
       inkscape:label="frame5" />
    <circle
       id="path164-9-3-5-1"
       cx="15.686012"
       cy="56.69643"
       r="4.1577382"
       style="fill:#ff00ff;fill-opacity:1;stroke-width:0.264583;filter:url(#filter2702)"
       transform="matrix(0.8181913,0,0,0.89400933,2.8518286,4.8157415)"
       inkscape:label="frame4" />
    <circle
       id="path164-9-3-5-1-3"
       cx="15.686012"
       cy="67.279762"
       r="4.1577382"
       style="fill:#ff00ff;fill-opacity:1;stroke-width:0.264583;filter:url(#filter2702)"
       transform="matrix(0.8181913,0,0,0.89400933,2.8518286,4.8157415)"
       inkscape:label="frame3" />
    <circle
       id="path164-9-3-5-1-3-2"
       cx="15.686011"
       cy="77.863098"
       r="4.1577382"
       style="fill:#ff00ff;fill-opacity:1;stroke-width:0.264583;filter:url(#filter2702)"
       transform="matrix(0.8181913,0,0,0.89400933,2.8518286,5.3449082)"
       inkscape:label="frame2" />
    <circle
       id="path164-9-3-5-1-3-2-6"
       cx="15.685739"
       cy="88.824402"
       r="4.1577382"
       style="fill:#ff00ff;fill-opacity:1;stroke-width:0.264583;filter:url(#filter2702)"
       transform="matrix(0.8181913,0,0,0.89400933,2.8518286,5.3449082)"
       inkscape:label="frame1" />
    <circle
       style="fill:#00ff00;fill-opacity:1;stroke:none;stroke-width:0.264583;stroke-opacity:1"
       id="path2747"
       cx="7.8430057"
       cy="102.8284"
       r="3.3072915"
       inkscape:label="push" />
    <circle
       style="fill:#00ff00;fill-opacity:1;stroke:none;stroke-width:0.264583;stroke-opacity:1"
       id="path2747-1"
       cx="6.6145835"
       cy="120.95238"
       r="3.3072915"
       inkscape:label="in" />
    <circle
       style="fill:#00ff00;fill-opacity:1;stroke:none;stroke-width:0.264583;stroke-opacity:1"
       id="path2747-14"
       cx="24.020388"
       cy="102.62054"
       r="3.3072915"
       inkscape:label="pop" />
    <circle
       id="path164-9-1"
       cx="15.685739"
       cy="24.946426"
       style="fill:#ff00ff;fill-opacity:1;stroke:none;stroke-width:0.264583;stroke-opacity:1;filter:url(#filter2702-0)"
       r="4.1577382"
       transform="matrix(0.8181913,0,0,0.89400933,2.8519638,4.9638081)"
       inkscape:label="frame7" />
    <circle
       style="display:inline;vector-effect:none;fill:#0000ff;fill-opacity:1;fill-rule:evenodd;stroke:none;stroke-width:0.826875;stroke-linecap:butt;stroke-linejoin:miter;stroke-miterlimit:4;stroke-dasharray:none;stroke-dashoffset:0;stroke-opacity:1;paint-order:normal"
       id="circle4958"
       cx="24.564472"
       cy="120.9525"
       inkscape:label="out"
       r="3.3074999" />
  </g>
</svg>
